<?xml version="1.0" standalone="no"?>
<!DOCTYPE svg PUBLIC "-//W3C//DTD SVG 20010904//EN"
 "http://www.w3.org/TR/2001/REC-SVG-20010904/DTD/svg10.dtd">
<svg version="1.0" xmlns="http://www.w3.org/2000/svg"
 width="512.000000pt" height="512.000000pt" viewBox="0 0 512.000000 512.000000"
 preserveAspectRatio="xMidYMid meet">

<g transform="translate(0.000000,512.000000) scale(0.100000,-0.100000)"
fill="#000000" stroke="none">
<path d="M2528 4532 c-121 -110 -262 -204 -329 -222 -221 -57 -468 -162 -647
-276 -47 -31 -51 -36 -40 -54 7 -11 17 -20 23 -20 6 0 44 -57 86 -127 42 -71
81 -127 88 -125 7 1 10 -2 7 -7 -4 -5 -1 -22 5 -38 7 -15 14 -36 15 -46 2 -9
39 -83 81 -163 67 -125 84 -149 120 -172 24 -15 43 -33 43 -39 0 -15 16 -17
25 -3 3 6 31 10 61 10 62 0 69 10 19 30 -19 7 -36 19 -39 25 -2 7 -23 15 -45
19 -23 3 -41 11 -41 16 0 13 16 13 63 -1 33 -9 41 -8 51 6 12 16 14 16 30 -1
18 -17 19 -17 32 1 26 36 15 210 -15 219 -9 3 5 4 31 2 49 -4 64 8 52 39 -4 8
-2 15 4 15 5 0 16 23 22 52 16 64 6 373 -11 395 -9 11 -9 12 4 7 22 -8 25 -21
32 -136 4 -57 9 -109 11 -117 3 -9 17 4 39 37 28 41 48 57 110 88 130 64 268
58 381 -18 41 -27 56 -48 91 -118 24 -46 49 -88 57 -92 9 -5 13 -15 9 -24 -6
-16 43 -94 61 -95 6 0 1 -4 -12 -10 -19 -7 -23 -15 -20 -41 2 -26 8 -33 24
-34 29 -2 41 -10 47 -35 4 -15 2 -19 -9 -15 -12 4 -12 2 -4 -14 7 -13 21 -20
38 -20 16 0 37 -7 48 -15 10 -8 27 -15 37 -15 20 0 23 -16 5 -23 -9 -4 -8 -6
2 -6 8 -1 21 8 28 19 18 29 43 25 85 -14 41 -37 117 -58 117 -32 0 8 -4 18
-10 21 -5 3 -10 11 -10 17 0 6 6 5 16 -3 22 -18 47 -21 56 -6 20 32 138 -77
138 -127 0 -23 3 -27 12 -18 21 21 64 14 94 -17 45 -44 56 -60 49 -71 -4 -6 4
-14 17 -19 14 -5 25 -5 29 2 10 14 39 1 39 -17 0 -9 -10 -20 -22 -27 -13 -6
-39 -26 -58 -45 -23 -22 -65 -43 -125 -64 -49 -18 -94 -36 -100 -41 -5 -5 31
5 80 22 106 36 258 80 262 75 2 -2 -76 -29 -174 -61 -161 -51 -219 -75 -186
-75 7 0 15 -28 19 -70 7 -71 9 -74 54 -70 14 1 22 -1 19 -4 -3 -3 -18 -7 -32
-8 -15 -1 -27 -5 -27 -9 0 -4 25 -53 55 -110 30 -56 55 -113 55 -126 0 -13 4
-22 9 -19 13 9 21 -19 21 -75 0 -48 -10 -62 -27 -36 -12 18 -43 119 -43 141 0
26 -105 225 -174 330 -61 92 -189 234 -227 253 -13 6 -58 27 -100 47 -41 20
-80 36 -86 36 -6 0 -13 22 -17 49 -5 38 -11 51 -27 56 -11 4 -25 19 -30 35 -6
15 -21 32 -35 39 l-25 11 31 46 c25 36 30 51 24 72 -4 15 -6 50 -5 77 4 92
-74 272 -145 334 -155 137 -407 81 -492 -108 -59 -133 -79 -256 -47 -297 15
-18 15 -18 9 9 -9 38 3 34 20 -8 12 -27 21 -35 40 -35 22 0 46 -24 46 -44 0
-3 -30 -20 -66 -37 -45 -21 -70 -40 -78 -58 -6 -14 -19 -38 -29 -53 -15 -21
-16 -33 -9 -61 10 -34 9 -34 -54 -76 -81 -54 -122 -88 -136 -115 -8 -17 -4
-15 20 8 27 25 32 27 38 12 3 -9 4 -26 1 -39 -19 -74 -34 -117 -39 -112 -3 3
-3 -6 -1 -20 7 -35 -1 -31 -28 11 -17 29 -21 49 -20 102 1 36 6 71 12 78 6 8
-26 80 -107 235 -64 123 -125 235 -134 249 -9 14 -26 50 -38 80 -32 86 -174
315 -195 314 -10 -1 -20 8 -23 22 -3 13 -10 24 -14 24 -4 0 -25 26 -46 58 -59
90 -61 92 -96 80 -29 -10 -34 -8 -57 18 -13 16 -22 21 -18 12 4 -10 10 -25 14
-35 4 -11 3 -14 -6 -9 -18 11 -85 150 -74 153 11 4 -11 101 -26 116 -10 10
-101 -41 -101 -56 0 -14 28 -63 44 -77 23 -18 116 -175 116 -193 0 -9 6 -20
14 -24 18 -11 106 -154 106 -173 0 -8 6 -27 14 -41 12 -24 12 -29 -3 -43 -15
-15 -10 -29 69 -187 77 -154 87 -169 108 -166 31 6 52 -34 32 -58 -17 -21 -70
-47 -137 -69 l-53 -18 1 -56 c1 -31 4 -70 8 -87 6 -28 9 -30 46 -27 22 2 73
15 114 28 40 14 78 23 84 21 13 -4 -102 -117 -131 -128 -17 -6 -21 -15 -18
-31 3 -13 7 -43 11 -66 3 -24 17 -71 31 -104 l25 -61 -22 -68 c-24 -74 -25
-68 17 -288 7 -41 12 -77 9 -79 -10 -10 -36 64 -46 132 -8 53 -16 76 -25 76
-9 0 -15 13 -16 38 -2 48 -2 43 22 140 l20 83 -25 48 c-19 39 -45 141 -45 184
0 4 16 15 35 23 58 24 43 36 -39 28 l-74 -7 -6 39 c-3 22 -8 69 -12 106 l-6
67 88 43 c104 50 103 49 86 55 -7 3 -37 55 -67 116 -29 62 -64 128 -76 147
-13 19 -23 37 -24 40 0 3 -7 22 -14 43 -9 28 -10 41 -2 51 15 18 -6 67 -24 60
-15 -6 -90 89 -145 182 l-38 66 -17 -32 c-43 -83 -56 -250 -30 -386 8 -43 13
-80 10 -82 -2 -2 -28 10 -58 27 -30 17 -60 31 -66 31 -7 0 -11 -33 -11 -103 0
-122 23 -226 75 -334 19 -40 29 -73 23 -73 -15 0 -119 59 -145 83 -13 11 -26
17 -30 13 -5 -4 -7 -65 -7 -134 3 -177 45 -326 128 -449 l26 -38 -25 -5 c-25
-5 -19 -12 92 -123 l118 -118 -54 21 c-29 11 -57 19 -62 18 -5 -2 7 -39 26
-83 42 -96 43 -104 10 -97 -32 6 -32 -6 3 -48 l29 -34 127 38 127 38 24 -22
c14 -13 24 -25 22 -26 -2 -2 -251 -44 -262 -44 -3 0 1 -11 10 -24 l15 -23 -77
-13 c-42 -6 -82 -14 -89 -17 -9 -3 9 -33 51 -86 109 -138 105 -131 105 -189 0
-82 -18 -265 -45 -455 -34 -236 -35 -230 18 -238 357 -54 479 -91 727 -215
224 -112 413 -235 585 -380 l90 -76 105 88 c182 153 360 269 581 378 213 104
358 149 608 190 74 12 138 23 141 25 3 2 -9 104 -26 227 -18 123 -38 287 -44
365 -14 165 -22 141 99 273 91 99 93 91 -26 110 -40 7 -73 14 -73 18 0 3 7 13
16 23 16 18 17 17 -205 56 l-35 6 27 22 26 23 107 -34 c59 -19 113 -34 120
-34 7 0 27 18 44 40 l32 40 -31 0 c-17 0 -31 2 -31 5 0 3 18 41 40 85 22 44
40 82 40 84 0 3 -25 -4 -55 -14 -30 -10 -55 -17 -55 -15 0 3 51 55 113 117 96
97 109 113 90 116 -29 4 -29 8 7 62 44 65 89 181 106 267 14 73 20 284 8 295
-3 4 -22 -5 -42 -19 -42 -28 -127 -73 -140 -73 -4 0 9 34 29 76 53 108 74 199
74 321 0 56 -4 105 -8 110 -5 4 -36 -7 -69 -25 -33 -19 -61 -32 -63 -30 -2 2
4 28 12 58 25 87 22 257 -7 353 -20 68 -40 107 -40 79 0 -15 -95 -157 -135
-201 l-37 -41 -57 48 c-227 196 -504 343 -792 423 -127 35 -198 77 -361 215
l-86 74 -54 -48z m118 -110 c43 -40 48 -48 30 -50 -11 0 -23 2 -26 6 -3 4 -20
18 -39 31 -25 17 -38 21 -50 14 -101 -60 -100 -60 -41 -5 30 28 60 51 65 51 6
0 33 -21 61 -47z m-1479 -144 c-3 -8 -6 -5 -6 6 -1 11 2 17 5 13 3 -3 4 -12 1
-19z m1602 -36 c-9 -14 -25 -16 -90 -14 -66 3 -78 6 -69 17 13 16 55 21 122
17 41 -3 46 -6 37 -20z m-179 3 c-9 -11 -34 -15 -95 -15 -61 0 -86 4 -95 15
-11 13 1 15 95 15 94 0 106 -2 95 -15z m-345 -55 c-5 -8 -11 -8 -17 -2 -6 6
-7 16 -3 22 5 8 11 8 17 2 6 -6 7 -16 3 -22z m818 14 c26 -9 47 -20 47 -25 0
-4 -8 -24 -17 -43 -14 -27 -30 -39 -71 -55 -72 -28 -92 -27 -92 3 0 39 18 76
51 107 17 16 32 29 33 29 1 0 23 -7 49 -16z m-551 -4 c10 0 16 -4 13 -10 -3
-5 -17 -10 -31 -10 -14 0 -27 -7 -30 -15 -11 -28 -34 -17 -34 16 0 30 2 31 31
25 17 -3 40 -6 51 -6z m85 -8 c-10 -10 -17 -24 -17 -30 0 -15 -27 -16 -35 -1
-10 15 24 49 48 49 19 0 19 -1 4 -18z m148 -3 c9 -10 -6 -39 -21 -39 -8 0 -14
5 -14 10 0 6 -17 10 -37 10 -33 1 -36 2 -21 14 17 12 81 16 93 5z m-710 -69
c-5 -8 -11 -8 -17 -2 -6 6 -7 16 -3 22 5 8 11 8 17 2 6 -6 7 -16 3 -22z m128
-44 l-26 -9 7 -166 c4 -91 9 -182 13 -201 4 -26 2 -32 -6 -24 -6 6 -13 32 -15
58 -2 26 -7 50 -10 53 -3 4 -6 16 -6 28 0 27 -27 52 -40 39 -6 -6 -11 -22 -12
-36 -2 -23 -7 -27 -45 -30 l-43 -3 0 35 c0 26 3 31 10 20 8 -13 10 -12 10 3 0
18 -15 23 -25 7 -13 -21 -31 2 -29 38 1 20 -3 42 -8 49 -7 8 -3 10 12 6 15 -4
19 -2 14 10 -8 22 34 47 81 47 42 1 75 18 75 41 0 20 54 66 62 54 4 -6 -4 -14
-19 -19z m-757 -59 c14 -27 23 -52 20 -55 -3 -3 -6 -1 -6 4 0 6 -16 36 -35 68
-19 32 -28 53 -19 45 8 -7 27 -35 40 -62z m799 25 c-3 -3 -11 0 -18 7 -9 10
-8 11 6 5 10 -3 15 -9 12 -12z m833 -4 c-24 -37 -28 -72 -13 -101 7 -15 11
-27 8 -27 -17 0 -66 47 -83 80 -26 51 -25 63 3 57 18 -5 52 0 96 12 2 1 -3 -9
-11 -21z m225 -123 c-48 -97 -62 -120 -58 -91 4 21 12 44 18 51 7 6 30 51 51
99 22 48 42 83 47 79 4 -4 -22 -66 -58 -138z m-1293 105 c8 -5 11 -10 5 -10
-5 0 -17 5 -25 10 -8 5 -10 10 -5 10 6 0 17 -5 25 -10z m-624 -62 c37 -72 23
-70 -16 3 -18 34 -27 59 -21 55 6 -4 23 -30 37 -58z m1518 16 c9 -22 -3 -32
-14 -14 -12 19 -12 30 -1 30 5 0 12 -7 15 -16z m-1194 -9 c0 -8 -4 -15 -10
-15 -5 0 -10 7 -10 15 0 8 5 15 10 15 6 0 10 -7 10 -15z m893 -22 c-7 -2 -19
-2 -25 0 -7 3 -2 5 12 5 14 0 19 -2 13 -5z m937 -15 c0 -15 -21 -18 -35 -5
-12 13 -11 15 10 13 14 0 25 -4 25 -8z m-630 -8 c0 -5 7 -10 16 -10 8 0 33
-17 54 -39 26 -26 46 -38 62 -36 13 1 15 0 6 -2 -14 -3 -18 -15 -18 -48 0 -24
-3 -46 -8 -49 -4 -2 -18 11 -30 30 -21 32 -21 34 -3 25 10 -6 22 -16 25 -23 3
-7 4 4 3 25 -1 29 -5 37 -20 37 -10 0 -21 9 -24 20 -3 10 -13 22 -22 25 -23 7
-68 55 -53 55 7 0 12 -4 12 -10z m-200 -16 c60 -24 109 -112 55 -98 -21 5 -24
3 -19 -11 6 -15 -2 -16 -80 -13 -47 2 -86 6 -86 10 0 4 -7 5 -16 1 -13 -5 -15
-2 -9 17 6 19 4 22 -9 17 -9 -4 -15 -3 -15 1 1 4 1 17 0 30 -1 20 -4 21 -23
12 -23 -11 -23 -11 -3 6 55 45 135 56 205 28z m837 -10 c-3 -3 -12 -4 -19 -1
-8 3 -5 6 6 6 11 1 17 -2 13 -5z m-1950 -56 c67 -115 132 -234 138 -255 12
-42 -13 -24 -28 20 -8 23 -19 41 -25 40 -6 -2 -17 19 -25 45 -7 26 -19 46 -25
45 -6 -2 -14 9 -18 25 -12 55 -15 61 -30 55 -10 -4 -14 3 -14 24 0 16 -5 34
-12 41 -7 7 -8 12 -2 12 5 0 24 -24 41 -52z m2469 -125 c-16 -78 -73 -223 -87
-223 -5 0 -9 5 -9 10 0 6 -9 29 -20 51 -15 33 -17 44 -7 61 10 16 9 22 -7 33
-18 14 -17 17 21 67 22 29 58 82 79 117 l39 65 3 -56 c2 -30 -4 -87 -12 -125z
m-2782 -32 c12 -13 13 -20 6 -23 -8 -2 -5 -15 9 -39 l21 -36 -26 -52 c-15 -28
-30 -48 -34 -44 -15 17 -69 171 -79 227 -6 33 -11 85 -11 115 l1 56 48 -93
c26 -51 56 -101 65 -111z m1131 143 c-14 -26 -25 -58 -25 -70 0 -23 -10 -31
-23 -18 -8 9 10 53 40 97 35 50 38 47 8 -9z m-165 16 c0 -5 -4 -10 -10 -10 -5
0 -10 5 -10 10 0 6 5 10 10 10 6 0 10 -4 10 -10z m624 -54 c18 -39 20 -56 6
-56 -5 0 -12 12 -16 28 -3 15 -10 37 -15 50 -14 35 6 17 25 -22z m359 -34 c-3
-12 -9 -22 -14 -22 -5 0 -3 11 3 25 13 30 20 28 11 -3z m-1463 14 c0 -3 -4 -8
-10 -11 -5 -3 -10 -1 -10 4 0 6 5 11 10 11 6 0 10 -2 10 -4z m1028 -31 l52
-16 -2 -42 c-1 -38 -2 -39 -5 -9 -7 54 -49 67 -213 67 -169 0 -207 -13 -213
-72 -3 -36 -4 -35 -5 9 l-2 47 53 15 c28 8 63 17 77 20 46 9 205 -3 258 -19z
m1042 0 c0 -2 -19 -14 -42 -26 -24 -12 -71 -42 -106 -67 -35 -24 -65 -43 -67
-41 -7 7 66 80 74 74 5 -2 35 11 67 30 55 33 74 41 74 30z m-2365 -135 c36
-71 63 -130 60 -130 -3 0 -34 59 -70 130 -36 72 -63 130 -60 130 3 0 34 -58
70 -130z m865 78 c0 -31 -3 -39 -11 -31 -7 7 -8 24 -4 42 9 43 15 39 15 -11z
m378 36 c19 -5 13 -11 -39 -35 -34 -16 -74 -38 -90 -49 l-28 -21 -26 40 c-30
48 -31 58 -7 64 26 7 164 8 190 1z m502 -4 c10 -7 2 -8 -29 -4 -39 6 -44 5
-38 -9 4 -11 1 -17 -8 -17 -8 0 -15 -9 -15 -20 0 -11 -4 -20 -10 -20 -5 0 -10
-9 -10 -20 0 -11 -7 -20 -15 -20 -24 0 -18 41 6 47 17 5 20 11 15 37 -4 21 -3
26 3 16 9 -12 11 -12 17 3 7 19 59 23 84 7z m-290 -24 c5 -14 5 -36 0 -53 -8
-28 -8 -27 -9 9 -1 20 -4 43 -7 52 -3 9 -3 16 0 16 4 0 11 -11 16 -24z m-33
-23 c-3 -10 -5 -4 -5 12 0 17 2 24 5 18 2 -7 2 -21 0 -30z m-530 -20 c-3 -10
-5 -2 -5 17 0 19 2 27 5 18 2 -10 2 -26 0 -35z m354 27 c-25 -22 -41 -26 -41
-10 0 6 9 10 19 10 11 0 23 5 26 10 3 6 9 10 13 10 4 -1 -4 -10 -17 -20z m116
-72 c-3 -7 -5 -2 -5 12 0 14 2 19 5 13 2 -7 2 -19 0 -25z m-186 6 c18 -22 84
-54 111 -54 13 0 34 7 46 16 12 8 22 11 22 5 0 -16 -35 -31 -73 -31 -21 0 -50
11 -78 30 -24 16 -48 30 -54 30 -5 0 -30 -14 -55 -30 -51 -34 -109 -40 -131
-13 -13 15 -12 15 8 5 39 -21 79 -14 125 22 49 39 60 42 79 20z m-341 -31 c0
-20 -3 -24 -11 -16 -7 7 -9 19 -6 27 10 24 17 19 17 -11z m643 -58 c-6 -10 -8
-1 -8 27 2 59 8 70 12 26 2 -21 0 -45 -4 -53z m-813 48 c0 -3 -6 -3 -14 0 -7
3 -20 0 -27 -6 -11 -10 -11 -9 0 5 11 15 41 15 41 1z m-81 -63 c14 0 21 -6 21
-20 0 -17 -5 -19 -25 -14 -24 6 -25 4 -25 -37 0 -24 -5 -51 -10 -59 -7 -11
-10 -8 -10 16 0 17 -3 60 -6 95 l-5 64 19 -22 c11 -13 30 -23 41 -23z m609 10
c40 -25 41 -32 2 -18 -17 5 -42 8 -55 5 -29 -5 -33 7 -7 22 23 14 22 14 60 -9z
m1511 -61 c-13 -84 -53 -201 -90 -266 l-30 -53 -54 58 c-57 60 -78 108 -26 58
l29 -28 60 104 c80 137 117 197 119 194 1 -1 -2 -31 -8 -67z m-3054 -46 c31
-54 72 -116 89 -138 18 -22 36 -45 39 -52 7 -11 -40 -92 -54 -93 -21 -1 -103
196 -124 296 -23 111 -23 111 50 -13z m659 75 c17 -24 20 -38 9 -38 -5 0 -16
14 -25 30 -20 35 -7 41 16 8z m1948 -53 c49 -23 65 -34 49 -35 -13 0 -56 18
-97 40 -54 30 -86 41 -123 43 -58 2 -55 14 4 19 26 2 49 -3 67 -15 15 -10 60
-33 100 -52z m-397 55 c-3 -5 -12 -10 -18 -10 -7 0 -6 4 3 10 19 12 23 12 15
0z m-869 -52 c19 -38 22 -49 10 -39 -27 23 -58 91 -41 91 2 0 17 -24 31 -52z
m493 38 c10 -11 9 -21 -3 -44 -23 -44 -39 -54 -70 -42 -22 8 -27 15 -24 38 2
20 9 28 28 30 14 2 29 10 33 18 10 18 21 18 36 0z m889 2 c7 -7 12 -19 12 -27
-1 -13 -2 -13 -11 2 -12 20 -40 22 -57 5 -9 -9 -12 -9 -12 0 0 12 28 31 46 32
5 0 15 -5 22 -12z m-658 -19 c0 -5 -4 -9 -10 -9 -5 0 -10 7 -10 16 0 8 5 12
10 9 6 -3 10 -10 10 -16z m-1284 -205 c52 -98 94 -182 94 -185 0 -3 -6 -14
-14 -24 -12 -17 -13 -17 -18 8 -3 15 -1 24 3 21 5 -3 9 -2 9 2 0 8 -109 217
-161 310 -19 32 -27 55 -19 52 7 -2 55 -85 106 -184z m-97 74 c28 -50 50 -93
48 -94 -4 -4 -93 143 -103 169 -15 42 8 10 55 -75z m261 67 c0 -8 -4 -15 -9
-15 -13 0 -22 16 -14 24 11 11 23 6 23 -9z m1851 -12 c13 -15 12 -16 -6 -8
-11 5 -32 9 -47 9 -40 1 -34 16 6 16 19 0 39 -7 47 -17z m-1124 -31 c-10 -10
-15 -21 -12 -24 6 -6 -31 -40 -70 -64 -37 -22 -32 -15 18 24 21 17 37 33 35
35 -3 5 32 47 40 47 3 0 -2 -8 -11 -18z m-1153 -13 c-18 -20 -65 -49 -80 -49
-6 0 86 67 95 69 2 1 -4 -8 -15 -20z m689 -51 c40 -69 83 -117 149 -170 35
-28 68 -55 73 -60 17 -17 -238 113 -272 139 -32 24 -43 56 -23 68 6 4 19 -4
30 -17 22 -26 24 -18 10 31 -8 30 -6 51 5 51 2 0 14 -19 28 -42z m627 2 c0
-38 12 -52 25 -30 10 16 25 1 25 -25 0 -20 -21 -35 -157 -104 -86 -45 -158
-80 -160 -78 -1 2 26 24 60 50 82 59 149 132 172 185 24 53 35 53 35 2z m1046
15 c-20 -15 -36 -19 -36 -10 0 5 38 23 50 24 3 0 -4 -6 -14 -14z m-254 -47
c-12 -12 -24 -19 -28 -15 -4 3 4 15 17 26 31 25 39 17 11 -11z m-2422 -102 c0
-3 -4 -8 -10 -11 -5 -3 -10 -1 -10 4 0 6 5 11 10 11 6 0 10 -2 10 -4z m626
-63 c-5 -5 -36 50 -36 64 0 4 9 -7 21 -26 11 -18 18 -35 15 -38z m1129 53 c50
-21 43 -28 -10 -9 -37 12 -48 13 -60 3 -13 -11 -14 -10 -9 4 8 20 34 20 79 2z
m845 10 c0 -3 -4 -8 -10 -11 -5 -3 -10 -1 -10 4 0 6 5 11 10 11 6 0 10 -2 10
-4z m-1670 -27 c0 -6 -5 -7 -10 -4 -6 4 -24 0 -40 -9 -17 -8 -30 -11 -30 -7 0
10 63 40 73 34 4 -2 7 -9 7 -14z m88 -100 c35 -61 62 -113 60 -115 -2 -2 -18
20 -35 49 -85 145 -102 177 -95 177 4 0 35 -50 70 -111z m-438 81 c6 -11 8
-20 6 -20 -3 0 -10 9 -16 20 -6 11 -8 20 -6 20 3 0 10 -9 16 -20z m1054 -7
c-10 -16 -35 -58 -57 -95 -43 -75 -59 -91 -27 -27 28 54 89 149 96 149 4 0 -2
-12 -12 -27z m233 -12 c9 -4 8 -12 -2 -30 -12 -24 -13 -24 -19 -4 -4 12 -13
24 -21 27 -8 3 -15 10 -15 16 0 11 29 6 57 -9z m1067 -8 c-33 -134 -90 -215
-184 -263 l-37 -19 38 77 c22 42 38 81 36 86 -2 5 -34 9 -73 7 l-69 -2 35 22
c36 22 239 118 253 119 4 0 4 -12 1 -27z m-3085 -197 c29 -42 51 -79 49 -82
-3 -2 -32 10 -65 26 -46 23 -70 43 -97 83 -29 43 -76 151 -76 177 0 17 141
-135 189 -204z m954 158 c-15 -23 -19 -25 -21 -10 -4 19 30 64 36 47 2 -5 -5
-22 -15 -37z m1230 -87 c110 -127 210 -308 256 -466 41 -137 42 -170 7 -216
-16 -20 -30 -34 -32 -32 -3 2 -1 22 4 43 l9 39 -56 0 c-47 0 -62 5 -95 30
l-39 30 6 -50 c6 -43 5 -47 -7 -33 -7 10 -16 15 -19 11 -11 -10 -67 19 -79 41
-11 21 -11 21 11 2 37 -33 23 -2 -18 38 l-39 38 4 -49 c4 -53 1 -50 -16 14 -6
23 -22 56 -36 73 -14 16 -22 31 -17 31 4 1 71 4 148 8 122 6 135 8 105 17
l-35 11 50 14 50 13 -40 8 c-22 4 -57 7 -77 7 -48 1 -85 33 -138 121 -34 57
-41 77 -38 107 l4 36 -26 -31 c-15 -18 -30 -29 -33 -25 -17 17 7 185 37 257
l16 38 40 -32 c21 -17 63 -59 93 -93z m-1519 103 c14 -5 30 -18 35 -29 11 -19
10 -19 -33 2 -25 12 -42 25 -40 29 6 10 7 10 38 -2z m446 -24 c0 -7 -17 -20
-37 -29 l-38 -17 28 21 c15 11 27 27 27 35 0 9 5 12 10 9 6 -3 10 -12 10 -19z
m219 -32 c36 -24 78 -54 93 -65 l26 -22 73 58 c79 61 127 90 137 80 6 -6 12
-29 14 -52 1 -7 -7 -30 -17 -52 -17 -38 -20 -40 -79 -49 l-61 -9 60 -3 c164
-7 92 -16 -130 -16 -143 0 -233 3 -210 7 22 4 65 9 95 10 l55 1 -63 12 c-71
12 -86 27 -87 89 0 26 4 37 14 37 11 0 10 4 -5 16 -40 33 17 5 85 -42z m500
19 c9 -7 24 -11 34 -9 10 2 17 -2 17 -10 0 -18 -2 -18 -45 3 -24 11 -35 23
-34 37 0 15 2 17 6 6 4 -8 13 -21 22 -27z m-1304 -33 c10 -11 16 -20 13 -20
-3 0 -13 9 -23 20 -10 11 -16 20 -13 20 3 0 13 -9 23 -20z m1295 -17 c0 -13
-3 -13 -15 -3 -8 7 -15 19 -15 27 0 13 3 13 15 3 8 -7 15 -19 15 -27z m-710
14 c0 -17 -20 -37 -37 -37 -19 0 -16 20 5 36 22 17 32 17 32 1z m-211 -326
c39 -101 70 -185 68 -187 -5 -5 -97 208 -136 312 -16 45 -27 85 -23 88 3 4 9
-1 13 -11 4 -10 39 -101 78 -202z m-426 172 c-7 -2 -19 -2 -25 0 -7 3 -2 5 12
5 14 0 19 -2 13 -5z m214 -90 l4 -78 -25 50 c-28 56 -31 77 -15 107 18 34 32
5 36 -79z m857 81 c-21 -5 -344 -11 -339 -6 7 7 315 19 334 13 8 -3 11 -6 5
-7z m196 -4 c14 -4 -15 -5 -65 -2 -49 2 -97 8 -105 13 -17 10 131 0 170 -11z
m-416 -35 c-9 -14 -19 -23 -22 -20 -5 4 26 45 35 45 2 0 -4 -11 -13 -25z
m-1201 -12 c-7 -2 -19 -2 -25 0 -7 3 -2 5 12 5 14 0 19 -2 13 -5z m507 -50 c0
-12 -9 -27 -19 -33 -28 -14 -31 -13 -31 15 0 17 -6 25 -17 25 -11 0 -3 8 17
19 38 20 50 14 50 -26z m835 33 c26 -19 13 -46 -24 -46 -34 0 -47 23 -25 45
19 18 25 19 49 1z m185 -9 c0 -10 -10 -12 -32 -8 -32 4 -32 5 -8 12 37 11 40
10 40 -4z m827 -13 c-3 -3 -12 -4 -19 -1 -8 3 -5 6 6 6 11 1 17 -2 13 -5z
m-1907 -30 c0 -8 -4 -12 -10 -9 -5 3 -10 10 -10 16 0 5 5 9 10 9 6 0 10 -7 10
-16z m106 -84 c4 -25 10 -47 15 -50 12 -8 -19 -153 -40 -180 -25 -34 -44 -36
-77 -5 -17 14 -22 23 -11 19 21 -8 21 -6 -1 48 -33 77 -35 95 -9 102 19 6 15
10 -36 40 l-58 33 49 5 c28 3 72 16 98 29 56 27 60 24 70 -41z m563 38 c0 -18
-4 -42 -9 -53 -6 -15 -9 -8 -9 28 l-1 47 -80 0 -79 0 -10 -32 c-7 -24 -9 -27
-10 -11 -2 49 5 53 105 53 l94 0 -1 -32z m-114 -18 c4 -7 -3 -8 -22 -4 -38 9
-42 14 -10 14 14 0 29 -5 32 -10z m-925 -30 c0 -5 -7 -10 -16 -10 -8 0 -12 5
-9 10 3 6 10 10 16 10 5 0 9 -4 9 -10z m2690 -10 c0 -5 -2 -10 -4 -10 -3 0 -8
5 -11 10 -3 6 -1 10 4 10 6 0 11 -4 11 -10z m-1424 -60 c-147 -5 -160 -6 -167
-25 -7 -20 -8 -20 -8 1 -1 11 2 24 6 27 3 4 79 6 167 5 l161 -2 -159 -6z m367
-6 c26 -9 58 -29 72 -46 25 -29 34 -55 16 -44 -5 4 -11 2 -13 -3 -3 -8 -133
31 -146 44 -3 3 13 5 36 5 49 0 54 13 13 30 -21 8 -39 9 -66 1 -48 -13 -68 -3
-29 15 40 17 62 17 117 -2z m142 -36 c14 -6 24 -16 22 -22 -3 -6 3 -20 12 -30
15 -18 15 -18 -9 -6 -14 7 -26 12 -28 11 -4 -3 -42 45 -42 53 0 9 17 7 45 -6z
m603 -98 c0 -22 -1 -22 -8 5 -4 17 -8 39 -8 50 0 16 2 15 8 -5 4 -14 8 -36 8
-50z m-1601 38 c-3 -8 -6 -5 -6 6 -1 11 2 17 5 13 3 -3 4 -12 1 -19z m-807
-31 c0 -25 -21 -37 -37 -21 -8 7 -11 18 -8 24 9 15 45 12 45 -3z m1678 -1 c3
-3 -11 -6 -31 -6 -20 0 -37 4 -37 10 0 9 57 6 68 -4z m-743 -8 c8 -8 -7 -68
-16 -68 -5 0 -6 14 -2 31 l6 31 -62 -4 c-58 -3 -81 5 -43 16 20 6 110 1 117
-6z m190 2 c3 -5 1 -10 -4 -10 -6 0 -11 5 -11 10 0 6 2 10 4 10 3 0 8 -4 11
-10z m-79 -9 c-16 -3 -33 -15 -37 -26 -7 -20 -8 -20 -8 1 -1 28 7 34 43 33
l31 -1 -29 -7z m-526 -43 c0 -33 -14 -50 -33 -42 -21 8 -21 10 1 39 22 31 32
31 32 3z m1926 -15 c-10 -10 -19 5 -10 18 6 11 8 11 12 0 2 -7 1 -15 -2 -18z
m-2306 2 c-14 -17 -40 -20 -40 -5 0 5 7 7 15 4 8 -4 15 -1 15 5 0 6 5 11 11
11 8 0 8 -5 -1 -15z m245 -139 c22 -19 25 -24 10 -20 -31 11 -66 46 -81 81
-21 50 -17 52 14 7 15 -23 41 -53 57 -68z m-433 63 l43 -12 -30 -8 c-52 -12
-61 -10 -74 17 -10 22 -9 26 3 21 8 -3 34 -11 58 -18z m500 -239 l208 0 0 -26
c0 -15 -5 -44 -12 -65 l-11 -39 -181 -2 -181 -3 -3 -37 -3 -38 155 0 c85 0
157 -4 160 -8 2 -4 -1 -35 -7 -67 l-12 -60 -162 -3 -162 -2 -7 -35 c-13 -69 3
-75 187 -75 l118 0 3 -27 c2 -23 9 -29 38 -33 31 -4 35 -8 35 -35 l0 -30 -255
0 c-237 0 -258 1 -300 21 -73 34 -77 51 -50 205 l23 130 -114 115 c-107 108
-112 114 -84 114 24 0 27 -2 15 -10 -12 -9 -7 -17 30 -50 l45 -40 22 27 23 28
-21 15 c-11 9 -17 19 -13 23 11 11 96 8 89 -2 -12 -21 17 -21 43 -1 24 20 35
22 101 16 41 -3 168 -6 283 -6z m2278 0 c-1 -3 -67 -46 -147 -96 l-147 -91
-30 18 c-26 16 -52 19 -164 19 -132 0 -132 0 -127 -22 3 -13 9 -73 14 -135 10
-122 13 -133 41 -133 14 0 20 -9 22 -37 l3 -38 61 -3 c61 -3 62 -3 94 38 31
40 32 40 98 40 37 0 73 -4 80 -9 18 -11 30 -69 24 -110 l-4 -32 -262 3 c-258
3 -262 3 -318 30 -79 37 -90 59 -105 202 -24 238 -15 284 60 327 39 23 54 24
237 29 249 7 570 6 570 0z m-1900 -31 l35 30 208 1 c221 0 255 -6 304 -52 24
-23 22 -38 -6 -38 -10 0 -23 -11 -29 -25 -16 -34 1 -75 42 -103 33 -22 34 -25
24 -60 -16 -58 -24 -68 -75 -93 -42 -20 -67 -24 -188 -27 -77 -2 -148 -9 -158
-14 -17 -9 -17 -11 -2 -28 13 -14 15 -30 10 -76 -4 -32 -9 -62 -11 -66 -3 -5
-61 -8 -130 -8 -122 0 -124 0 -124 23 0 54 40 519 47 544 l7 28 6 -33 5 -33
35 30z m914 -11 c17 -138 17 -175 2 -181 -9 -4 -16 -16 -16 -28 0 -14 5 -19
14 -16 10 4 16 -6 20 -34 4 -22 4 -44 2 -48 -3 -4 0 -40 5 -81 5 -41 7 -94 4
-117 l-6 -43 -120 0 c-87 0 -121 3 -124 13 -6 20 -22 526 -17 553 4 24 6 24
118 24 l113 0 5 -42z m-1462 -593 c-4 -24 -7 -25 -83 -25 -49 0 -79 4 -79 11
0 6 -13 1 -29 -10 -18 -13 -36 -42 -50 -81 l-22 -60 -55 0 -55 0 -19 -42 c-34
-76 -22 -8 18 96 50 132 57 136 243 136 l136 0 -5 -25z m406 -47 c7 -40 15
-83 18 -95 6 -22 4 -23 -50 -23 -53 0 -56 1 -46 19 13 25 13 27 -6 45 -25 25
-34 19 -34 -24 l0 -40 -95 0 -95 0 -27 -39 c-16 -21 -33 -47 -39 -57 -7 -11
-14 -17 -16 -14 -3 3 33 71 79 153 l85 147 107 0 107 0 12 -72z m345 51 c4
-13 0 -23 -11 -27 -71 -31 -92 -57 -92 -114 0 -27 -2 -28 -49 -28 -52 0 -61
-8 -61 -58 0 -15 -5 -34 -11 -42 -8 -11 -9 -4 -5 30 2 25 10 93 17 153 l12
107 97 0 c90 0 98 -2 103 -21z m346 -31 c-1 -29 -1 -57 1 -63 1 -5 2 -25 1
-42 -1 -33 -2 -33 -51 -33 -54 0 -55 -1 -63 -80 -2 -19 -5 13 -5 73 -1 59 -6
107 -10 107 -5 0 -19 -22 -32 -50 -21 -45 -27 -50 -56 -50 -21 0 -37 -6 -43
-17 -5 -10 -12 -15 -15 -13 -3 3 11 48 30 100 19 52 37 101 39 108 3 8 33 12
105 12 l101 0 -2 -52z m379 30 c-3 -22 -8 -23 -100 -26 -101 -3 -107 -6 -92
-46 5 -13 22 -16 77 -16 51 0 75 -4 89 -17 35 -32 23 -43 -47 -43 -37 0 -65 4
-65 10 0 15 -14 12 -37 -9 -13 -13 -39 -21 -69 -23 -48 -3 -49 -4 -49 -35 0
-18 -3 -29 -7 -25 -4 4 -10 62 -14 130 l-7 122 162 0 162 0 -3 -22z m404 -17
c26 -29 29 -39 24 -73 -4 -21 -2 -48 4 -58 10 -19 7 -20 -41 -20 l-51 0 6 -37
c4 -21 10 -46 13 -57 3 -11 1 -16 -5 -12 -6 4 -14 27 -18 52 -3 25 -13 52 -21
59 -15 16 -74 20 -87 8 -7 -8 -13 -8 -79 -11 l-38 -2 7 -57 c3 -32 4 -56 1
-53 -5 4 -20 87 -51 278 l-3 23 154 -3 155 -3 30 -34z m208 29 c-13 -9 -13
-12 2 -23 10 -8 14 -22 11 -38 -6 -32 0 -34 109 -49 46 -7 84 -12 85 -13 0 -1
3 -13 5 -27 3 -22 -1 -25 -30 -28 -29 -3 -32 -6 -30 -30 l3 -27 -108 -3 -107
-3 6 -27 c4 -21 3 -24 -5 -12 -6 8 -11 23 -11 33 0 15 12 17 105 17 105 0 105
0 105 24 0 14 -5 28 -10 31 -6 3 -53 11 -106 17 -113 13 -139 29 -149 90 -10
56 15 78 89 78 37 0 47 -3 36 -10z m184 -6 c12 -31 5 -34 -69 -34 -67 0 -75 2
-75 19 0 11 -6 22 -12 24 -7 3 24 6 68 6 66 1 83 -2 88 -15z m-1545 -191 c16
-51 25 -90 20 -87 -10 6 -59 163 -58 185 1 18 3 12 38 -98z m-739 73 c0 -3 -4
-16 -10 -30 -9 -24 -15 -26 -64 -26 -50 0 -54 -2 -66 -30 -11 -27 -17 -30 -54
-28 -41 1 -41 1 -5 5 34 4 37 7 53 59 l17 54 65 0 c35 0 64 -2 64 -4z m334
-138 c4 -17 2 -28 -4 -28 -5 0 -10 14 -10 32 0 36 4 35 14 -4z m1154 15 c-27
-2 -69 -2 -95 0 -27 2 -5 3 47 3 52 0 74 -1 48 -3z m-463 -156 l31 -52 98 -5
98 -5 -64 -47 c-72 -53 -93 -54 -33 -2 l40 35 -35 -14 c-19 -8 -48 -20 -63
-28 -32 -15 -32 -9 3 -138 11 -41 18 -76 16 -78 -2 -2 -17 8 -32 22 l-29 26
25 -6 c20 -5 14 4 -29 45 -30 27 -58 50 -61 50 -3 0 -31 -23 -61 -51 -30 -28
-46 -46 -36 -39 27 20 29 7 2 -25 -13 -17 -27 -27 -31 -23 -6 7 1 40 43 189 3
11 -13 23 -57 43 -34 15 -63 26 -66 24 -2 -3 17 -19 42 -37 72 -52 43 -48 -38
6 l-73 48 102 3 101 3 31 54 c17 30 35 55 39 55 4 0 21 -24 37 -53z"/>
<path d="M3904 3663 c3 -22 26 -29 36 -12 11 17 3 29 -20 29 -11 0 -17 -6 -16
-17z"/>
<path d="M1501 1986 c-10 -12 -8 -17 10 -26 17 -10 24 -9 38 4 14 15 14 18 1
26 -21 14 -36 12 -49 -4z"/>
<path d="M1397 1783 c-4 -3 -7 -15 -7 -25 0 -26 24 -17 28 10 3 21 -8 29 -21
15z"/>
<path d="M1543 1765 c-3 -9 -3 -18 0 -21 9 -9 27 6 27 22 0 19 -19 18 -27 -1z"/>
<path d="M1462 1558 c-7 -7 -12 -22 -12 -35 0 -27 42 -42 65 -23 21 18 19 36
-7 54 -27 19 -31 19 -46 4z"/>
<path d="M3644 1964 c3 -8 6 -27 6 -41 0 -16 7 -27 20 -30 11 -3 18 -9 15 -13
-2 -4 11 -15 29 -25 l34 -18 51 32 c54 35 59 42 39 59 -14 11 -115 40 -167 48
-28 4 -32 2 -27 -12z"/>
<path d="M3193 1765 c-3 -9 -3 -18 0 -21 9 -9 27 6 27 22 0 19 -19 18 -27 -1z"/>
<path d="M3282 1653 c2 -10 13 -19 26 -21 24 -4 29 7 10 26 -18 18 -40 15 -36
-5z"/>
<path d="M2320 1815 c0 -51 2 -56 28 -66 17 -7 45 -8 77 -2 l50 8 0 55 0 55
-77 3 -78 3 0 -56z"/>
<path d="M2113 1633 c-17 -6 -16 -33 1 -33 17 0 38 24 29 33 -7 8 -12 8 -30 0z"/>
<path d="M2840 1836 c0 -40 12 -52 30 -31 10 12 10 21 2 40 -16 36 -32 31 -32
-9z"/>
<path d="M2865 1627 c-17 -24 -21 -112 -5 -122 16 -10 50 14 44 30 -3 8 1 22
10 30 24 25 20 60 -9 73 -21 10 -27 8 -40 -11z"/>
<path d="M1260 1240 c0 -5 5 -10 10 -10 6 0 10 5 10 10 0 6 -4 10 -10 10 -5 0
-10 -4 -10 -10z"/>
<path d="M1827 1293 c-34 -67 -34 -74 6 -69 36 4 45 28 29 87 l-9 34 -26 -52z"/>
<path d="M2495 1350 c-8 -12 20 -24 35 -15 5 3 10 10 10 16 0 12 -37 12 -45
-1z"/>
<path d="M2766 1303 c9 -37 9 -37 46 -26 l33 9 -35 22 c-46 28 -52 28 -44 -5z"/>
<path d="M3249 1338 c-18 -44 -17 -89 2 -101 22 -14 49 -2 49 23 0 16 6 20 36
20 32 0 35 2 32 27 -2 17 -14 33 -33 44 -47 27 -71 24 -86 -13z"/>
<path d="M3170 1250 c0 -13 5 -20 13 -17 6 2 12 10 12 17 0 7 -6 15 -12 18 -8
2 -13 -5 -13 -18z"/>
<path d="M1517 1245 c6 -17 25 -15 31 3 2 7 -5 12 -17 12 -14 0 -19 -5 -14
-15z"/>
<path d="M1200 4236 c0 -10 40 -76 46 -76 3 0 -2 12 -10 28 -22 40 -36 58 -36
48z"/>
<path d="M2170 3453 c0 -63 12 -61 27 4 11 44 9 53 -14 53 -9 0 -13 -16 -13
-57z"/>
<path d="M3005 3411 c11 -5 29 -18 39 -30 11 -11 25 -21 33 -21 9 0 12 -6 9
-17 -5 -16 2 -18 64 -19 39 0 70 3 70 7 0 5 -16 15 -35 23 -19 8 -35 19 -35
25 0 10 -30 22 -70 27 -14 2 -41 6 -60 9 -26 4 -30 3 -15 -4z"/>
<path d="M3360 3230 c0 -5 6 -10 14 -10 16 0 26 -21 26 -56 0 -29 -12 -27 -85
8 l-40 20 45 -40 c25 -22 42 -43 38 -47 -4 -4 -1 -13 6 -21 7 -7 14 -33 14
-58 1 -55 19 -93 35 -77 7 7 14 6 22 -6 7 -10 17 -13 25 -8 10 6 9 11 -4 21
-16 11 -15 14 13 28 16 9 37 16 45 16 24 0 44 40 49 98 5 49 4 52 -18 52 -25
0 -50 24 -50 48 0 10 -18 20 -55 28 -68 16 -80 17 -80 4z m114 -132 c-3 -5
-12 -4 -20 3 -19 16 -18 18 6 12 11 -3 17 -9 14 -15z m6 -78 c0 -5 -7 -10 -15
-10 -8 0 -15 5 -15 10 0 6 7 10 15 10 8 0 15 -4 15 -10z"/>
<path d="M3600 3122 c0 -5 6 -15 14 -22 8 -6 16 -21 18 -33 2 -12 9 -21 16
-19 6 1 12 -8 12 -19 0 -18 2 -19 15 -9 10 8 15 9 15 2 0 -6 7 -9 15 -5 18 6
14 29 -4 26 -6 -2 -11 2 -11 7 0 6 5 10 10 10 6 0 5 8 -2 20 -8 12 -19 18 -30
15 -9 -3 -19 -1 -23 5 -9 15 -45 32 -45 22z"/>
</g>
</svg>
