<?xml version="1.0" standalone="no"?>
<!DOCTYPE svg PUBLIC "-//W3C//DTD SVG 20010904//EN"
 "http://www.w3.org/TR/2001/REC-SVG-20010904/DTD/svg10.dtd">
<svg version="1.0" xmlns="http://www.w3.org/2000/svg"
 width="1024.000000pt" height="1024.000000pt" viewBox="0 0 1024.000000 1024.000000"
 preserveAspectRatio="xMidYMid meet">

<g transform="translate(0.000000,1024.000000) scale(0.100000,-0.100000)"
fill="#000000" stroke="none">
<path d="M5060 9073 c-120 -109 -221 -190 -365 -290 -173 -120 -212 -140 -335
-172 -269 -70 -549 -172 -790 -287 -193 -93 -449 -238 -546 -311 -27 -20 -28
-22 -12 -40 9 -10 18 -27 20 -38 3 -15 11 -19 29 -17 23 2 35 -15 135 -183 60
-102 137 -229 172 -283 34 -53 68 -114 74 -136 7 -21 17 -39 22 -41 6 -2 61
-18 121 -38 61 -19 153 -47 205 -62 52 -15 99 -31 103 -35 12 -11 -91 16 -253
67 -80 25 -153 47 -162 50 -16 5 -17 2 -6 -28 6 -18 42 -91 80 -163 38 -71 77
-149 88 -173 33 -74 132 -247 156 -272 15 -15 30 -21 41 -17 17 6 17 5 0 -8
-17 -13 -17 -14 0 -21 10 -5 24 -7 31 -6 7 1 15 -5 19 -14 5 -13 7 -14 14 -3
7 10 12 9 26 -5 17 -17 17 -18 -1 -11 -14 5 -17 4 -12 -5 5 -7 19 -16 32 -21
14 -6 24 -18 24 -29 0 -14 5 -18 20 -14 11 3 20 10 20 16 0 5 8 16 18 23 19
15 36 18 29 7 -3 -5 40 -10 94 -11 57 -2 99 0 99 6 0 16 -36 42 -59 42 -14 0
-25 7 -28 20 -3 11 -10 20 -15 20 -5 0 -6 -6 -2 -12 6 -10 4 -10 -7 0 -7 6
-21 12 -31 12 -11 0 -18 7 -18 19 0 15 -10 21 -42 26 -92 14 -157 46 -122 59
26 10 184 -29 184 -46 0 -4 7 -8 15 -8 8 0 15 -5 15 -12 0 -6 3 -8 7 -4 5 4
-1 14 -11 22 -11 8 -14 14 -8 14 7 0 12 7 12 16 0 9 8 23 18 30 15 11 22 8 50
-19 l33 -32 29 34 c29 32 30 38 29 120 -1 47 -4 133 -8 191 -6 104 -6 105 -33
110 -24 4 -25 7 -13 23 11 16 18 17 52 8 21 -6 54 -11 74 -11 35 0 37 2 41 36
3 22 -1 42 -9 49 -19 19 -16 23 14 27 24 3 28 10 44 78 16 66 18 106 13 340
-5 224 -11 422 -13 453 -1 11 -57 33 -105 42 -36 6 -39 5 -26 -10 8 -9 39 -30
69 -45 37 -19 49 -29 35 -30 -12 0 -36 11 -55 25 -64 47 -79 52 -95 30 -16
-22 -12 -189 11 -400 18 -164 27 -306 16 -250 l-8 40 -2 -36 c0 -19 3 -39 8
-45 5 -5 11 -33 14 -61 l6 -53 -27 25 c-27 25 -27 27 -27 150 0 69 -3 125 -7
125 -5 0 -7 -3 -7 -7 3 -18 -4 -177 -7 -163 -1 8 -6 68 -10 134 -3 65 -10 113
-14 106 -6 -9 -11 -7 -19 9 -26 47 -68 10 -72 -63 -3 -43 0 -50 19 -57 12 -5
22 -10 22 -11 0 -2 -71 -3 -158 -3 -118 0 -145 2 -109 8 46 9 47 10 47 47 0
49 -8 70 -28 70 -19 0 -134 42 -129 47 2 2 16 -1 31 -7 45 -17 56 -13 56 21 0
26 2 29 14 20 9 -7 17 -8 20 -3 3 6 -5 13 -18 16 -21 5 -24 10 -20 39 5 28 2
34 -26 50 -38 23 -33 34 7 15 29 -15 63 -13 63 3 0 5 -3 9 -8 9 -4 0 -8 14 -8
30 -1 25 1 28 12 19 11 -9 15 -8 20 4 8 23 71 42 129 38 61 -3 105 12 112 39
5 20 23 28 23 10 0 -5 4 -10 10 -10 5 0 9 3 9 8 -3 18 2 26 10 13 6 -9 9 -6
10 13 1 14 3 37 4 50 1 13 5 22 8 20 4 -2 12 3 19 10 6 8 25 18 41 21 28 6 29
9 30 68 l2 62 7 -45 c5 -25 6 -53 4 -62 -4 -13 3 -19 23 -23 51 -11 89 -36
100 -66 9 -22 8 -27 0 -22 -8 4 -7 1 1 -9 13 -16 18 -85 27 -318 2 -67 8 -116
14 -118 6 -2 8 -18 5 -35 -5 -35 2 -23 26 40 7 18 16 31 20 28 4 -3 11 2 14
11 9 23 8 26 -6 18 -8 -4 -10 -3 -5 2 5 5 12 9 17 9 5 0 22 19 39 42 60 83
208 170 356 209 92 25 282 25 373 0 74 -20 159 -59 223 -103 87 -60 119 -102
195 -259 50 -103 80 -153 93 -157 25 -6 48 -47 27 -47 -11 0 -13 -6 -6 -27 15
-51 21 -60 46 -71 13 -7 24 -18 24 -27 0 -18 20 -56 35 -67 16 -12 27 -9 19 4
-5 8 -2 9 10 5 10 -4 20 -7 22 -7 3 0 -1 -6 -8 -14 -7 -7 -18 -11 -25 -9 -9 4
-39 -10 -72 -34 -2 -1 2 -9 9 -18 8 -10 9 -15 1 -15 -6 0 -11 -16 -11 -35 0
-24 5 -35 14 -35 8 0 16 -5 18 -11 3 -9 10 -9 26 0 19 10 28 8 62 -16 22 -15
38 -33 36 -39 -3 -6 1 -17 7 -23 8 -8 8 -14 0 -22 -8 -8 -17 -5 -32 10 -17 17
-21 18 -21 5 0 -8 5 -25 12 -37 20 -39 45 -53 87 -51 23 1 44 -2 47 -7 3 -5
14 -9 25 -9 10 0 19 -7 19 -15 0 -13 15 -18 90 -29 10 -1 15 -12 13 -34 -1
-21 3 -32 10 -29 7 2 11 12 9 22 -3 13 1 16 14 11 10 -4 15 -4 12 0 -12 11 11
44 38 54 32 12 62 0 107 -44 21 -20 44 -36 52 -36 8 0 15 -8 15 -19 0 -28 23
-42 66 -40 22 1 55 -5 74 -14 27 -12 38 -13 47 -4 19 18 -4 84 -31 91 -16 4
-18 8 -9 17 9 9 18 4 39 -20 18 -22 29 -29 34 -20 5 7 13 8 21 3 24 -14 47
-11 52 8 7 26 44 23 70 -6 16 -17 27 -22 38 -16 11 7 16 5 16 -5 0 -8 -4 -15
-9 -15 -4 0 -8 -5 -8 -11 0 -8 5 -7 15 1 13 11 21 10 43 -7 17 -13 26 -29 25
-42 -2 -15 3 -21 17 -21 11 0 20 -6 20 -14 0 -8 13 -23 29 -32 29 -17 34 -44
16 -86 -6 -15 -2 -18 21 -17 16 0 23 3 17 6 -7 2 -13 9 -13 13 0 5 17 2 37 -7
22 -9 39 -11 41 -5 2 6 16 6 42 0 37 -10 39 -9 75 31 21 22 41 39 45 36 4 -3
10 2 14 10 3 8 10 15 16 15 28 0 -45 -91 -95 -118 -17 -10 -17 -11 -3 -12 10
0 22 -9 28 -20 6 -11 20 -20 30 -20 11 0 20 -4 20 -10 0 -5 -4 -10 -10 -10 -5
0 -10 -7 -10 -16 0 -11 6 -15 20 -11 16 4 20 0 20 -20 0 -18 4 -24 15 -20 19
8 31 -11 16 -26 -20 -20 -11 -36 28 -48 34 -10 42 -9 56 5 32 31 75 13 75 -31
0 -17 -14 -33 -47 -56 -102 -71 -152 -117 -147 -135 5 -13 4 -14 -4 -3 -7 10
-14 11 -28 2 -18 -10 -18 -10 1 -11 16 0 17 -2 5 -9 -8 -6 -18 -7 -22 -5 -4 3
-8 0 -8 -5 0 -6 -13 -11 -29 -11 -17 0 -32 -4 -35 -9 -3 -4 -27 -14 -53 -21
-27 -7 -61 -18 -78 -25 -16 -7 -59 -22 -94 -34 -56 -19 -118 -51 -98 -51 3 0
96 29 204 65 189 63 535 167 538 162 0 -1 7 -11 15 -21 14 -18 14 -18 -5 -7
-17 10 -66 -3 -337 -93 -175 -58 -323 -106 -329 -106 -6 0 -33 -10 -60 -21
-51 -22 -65 -40 -27 -36 21 2 22 -3 26 -73 2 -41 6 -104 10 -140 l7 -65 45 -2
c42 -3 300 -35 420 -52 99 -15 -1 -11 -130 4 -158 20 -290 33 -312 32 -24 -1
-23 -25 4 -67 11 -19 39 -71 61 -115 22 -44 47 -85 56 -92 33 -24 55 -44 41
-37 -8 4 -23 14 -33 22 -16 14 -16 12 2 -28 10 -23 30 -56 44 -71 18 -21 27
-46 32 -91 8 -72 15 -90 26 -62 14 37 33 -36 37 -145 4 -98 3 -103 -15 -96
-10 4 -26 8 -35 9 -12 0 -18 13 -23 44 -4 24 -17 72 -31 108 -13 36 -24 86
-24 114 0 36 -8 62 -28 97 -16 26 -52 97 -82 157 -67 137 -130 252 -184 336
-24 36 -63 97 -88 136 -110 169 -349 429 -436 473 -22 11 -70 32 -107 46 -36
13 -92 40 -123 60 -31 19 -82 41 -112 48 l-55 14 -6 79 c-7 98 -19 121 -64
130 -30 5 -35 11 -41 43 -9 53 -28 78 -80 100 -32 15 -43 24 -37 34 4 7 31 46
59 87 64 94 65 97 44 140 -13 27 -17 62 -18 155 0 107 -4 129 -30 205 -110
313 -203 451 -360 533 -101 54 -152 67 -277 74 -85 4 -125 2 -175 -11 -143
-37 -292 -134 -361 -236 -46 -68 -110 -220 -155 -365 -48 -159 -46 -309 7
-359 15 -15 20 -16 16 -5 -13 39 -28 169 -25 219 l3 55 18 -55 c15 -49 16 -56
2 -66 -16 -12 -10 -48 16 -95 7 -13 14 -37 16 -54 5 -40 10 -44 81 -51 68 -7
78 -16 83 -73 4 -37 2 -39 -141 -104 -105 -48 -140 -79 -140 -126 0 -30 -5
-40 -24 -49 -45 -20 -60 -55 -53 -127 4 -36 11 -74 17 -84 9 -17 1 -24 -63
-59 -39 -22 -81 -49 -91 -61 -10 -11 -39 -33 -64 -47 -68 -40 -165 -137 -185
-186 -17 -43 -17 -43 50 31 l68 75 6 -30 c12 -55 9 -95 -12 -141 -13 -30 -18
-54 -14 -72 4 -14 4 -23 0 -19 -15 15 -30 -17 -26 -55 4 -45 -12 -44 -31 1
-21 50 -19 -1 2 -62 25 -74 15 -92 -16 -29 -14 26 -29 52 -35 58 -6 5 -4 -4 5
-22 22 -44 19 -56 -3 -13 -11 19 -17 38 -15 42 2 3 -7 25 -20 49 -19 32 -22
47 -15 61 6 10 7 24 3 30 -4 7 -3 8 4 4 15 -9 16 16 1 31 -7 7 -10 36 -7 76 3
54 8 69 28 86 l25 20 -23 43 c-13 24 -80 153 -149 288 -69 135 -145 279 -168
320 -23 41 -63 116 -89 165 -77 151 -116 216 -101 170 6 -16 5 -17 -4 -5 -5 8
-8 25 -4 37 3 13 1 23 -5 23 -5 0 -24 39 -42 87 -18 48 -54 121 -80 163 -44
71 -99 163 -152 256 -78 137 -124 204 -138 200 -8 -2 -21 -5 -29 -7 -9 -3 -20
12 -30 42 -9 26 -24 50 -36 55 -11 5 -48 52 -83 104 -34 52 -78 116 -98 141
l-36 46 -61 -25 c-43 -17 -65 -22 -76 -15 -14 9 -44 59 -117 197 -14 27 -32
55 -39 63 -20 19 -68 151 -71 194 -2 37 -30 88 -48 89 -7 0 -165 -100 -190
-121 -12 -10 51 -111 117 -186 29 -34 74 -100 100 -145 25 -46 58 -103 74
-128 15 -25 27 -60 28 -79 0 -27 6 -38 29 -50 35 -20 202 -289 211 -341 10
-54 27 -93 53 -117 l24 -22 -36 -32 c-20 -17 -36 -38 -36 -46 0 -15 56 -129
203 -413 50 -96 102 -196 114 -222 13 -27 26 -48 29 -48 2 0 20 6 38 14 l33
14 22 -42 c27 -49 19 -82 -26 -114 -51 -35 -187 -98 -253 -116 -36 -10 -70
-22 -76 -27 -6 -5 -14 -6 -17 -2 -10 9 -8 -54 3 -186 14 -158 15 -161 55 -161
66 0 233 42 338 84 83 34 109 41 113 31 6 -14 -17 -71 -26 -64 -11 8 -72 -45
-87 -75 -8 -17 -35 -43 -59 -58 -24 -15 -44 -34 -44 -42 0 -15 -18 -25 -60
-33 -13 -2 -26 -6 -28 -7 -6 -7 21 -195 39 -266 11 -41 33 -104 51 -140 44
-89 42 -147 -6 -262 -41 -98 -45 -146 -20 -240 8 -34 24 -124 34 -202 10 -77
28 -170 39 -206 11 -35 19 -66 17 -68 -2 -2 -14 3 -25 10 -32 20 -60 108 -82
257 -11 75 -23 149 -28 166 l-9 30 -1 -28 c-2 -51 -26 -24 -35 39 -4 32 -10
66 -14 74 -3 8 -4 23 -3 33 1 9 -3 17 -9 17 -7 0 -2 8 11 18 12 11 28 41 35
68 17 65 17 72 -3 77 -15 4 -15 5 2 6 17 1 23 14 39 86 l19 85 -35 68 c-60
114 -98 265 -98 385 l0 43 49 13 c56 14 91 45 73 63 -8 8 -34 8 -100 -1 -48
-6 -109 -11 -134 -11 -44 0 -47 2 -57 33 -11 37 -31 247 -31 336 l0 61 41 16
c22 9 104 48 182 87 113 55 138 71 122 77 -31 12 -52 40 -85 113 -17 37 -34
67 -38 67 -4 0 -18 10 -32 21 l-25 20 32 -15 32 -16 -34 74 c-56 119 -172 321
-186 321 -7 0 -14 6 -17 14 -3 8 0 11 7 7 15 -10 15 -11 -23 80 l-34 81 25 25
25 25 -23 48 c-19 40 -20 51 -10 68 13 19 12 19 -14 -1 -15 -12 -33 -22 -39
-22 -26 0 -205 247 -296 409 l-59 104 -25 -58 c-83 -186 -112 -401 -86 -630
12 -104 46 -279 60 -313 9 -21 8 -23 -12 -16 -13 3 -75 35 -139 70 -63 35
-120 64 -126 64 -15 0 -27 -209 -18 -313 18 -212 71 -402 167 -597 34 -69 64
-129 66 -133 5 -10 -159 71 -249 124 -36 21 -82 54 -101 75 l-36 36 -7 -118
c-27 -420 55 -772 249 -1069 31 -47 56 -88 56 -90 0 -3 -25 -2 -56 1 -55 7
-56 6 -45 -14 6 -11 112 -118 236 -238 124 -120 225 -221 225 -225 0 -4 -52
13 -116 37 -65 24 -119 42 -121 40 -5 -5 34 -104 106 -265 l50 -113 -63 4 -64
4 25 -41 c14 -22 41 -61 60 -86 35 -46 35 -46 64 -32 28 14 454 143 472 143 5
0 29 -18 54 -40 25 -22 50 -40 54 -40 5 0 9 -4 9 -8 0 -5 -39 -14 -87 -21 -49
-7 -170 -26 -270 -42 -100 -16 -184 -29 -188 -29 -3 0 8 -21 25 -46 18 -25 30
-47 28 -48 -1 -2 -81 -16 -176 -31 -102 -17 -172 -32 -172 -39 0 -6 23 -38 51
-71 131 -156 247 -312 246 -330 -2 -15 4 -19 20 -18 21 3 22 0 17 -60 -2 -34
-11 -156 -19 -272 -19 -264 -35 -401 -90 -792 -25 -172 -45 -326 -45 -342 0
-28 3 -30 48 -36 809 -105 1134 -215 1880 -638 291 -165 683 -449 909 -661
l63 -58 97 89 c272 249 626 501 1003 715 88 50 427 217 521 257 338 142 693
229 1217 297 47 6 47 6 32 85 -39 200 -124 857 -145 1114 -24 297 -25 286 39
364 30 36 116 131 190 211 74 80 132 148 128 151 -6 6 -194 38 -314 55 -27 3
-48 9 -48 12 0 3 17 23 37 44 20 21 35 39 32 41 -4 4 -304 58 -438 79 l-73 11
48 43 c27 24 57 43 66 44 10 0 82 -21 160 -46 79 -25 178 -57 220 -71 43 -13
82 -22 88 -18 5 3 37 42 71 86 l61 80 -72 -7 -72 -7 15 24 c24 39 177 343 174
346 -2 1 -57 -15 -122 -37 -66 -22 -120 -40 -122 -40 -2 0 103 106 232 235
129 129 235 238 235 242 0 5 -23 7 -51 6 -59 -3 -59 -2 -1 85 106 155 187 347
230 546 24 112 26 140 27 361 0 132 -3 248 -8 259 -7 17 -9 17 -30 -6 -41 -44
-340 -209 -354 -195 -2 3 10 27 26 55 152 246 229 602 197 905 -10 95 -3 95
-165 2 -117 -66 -137 -74 -127 -52 69 167 95 462 61 677 -14 82 -70 275 -93
315 -5 9 -26 -20 -65 -88 -69 -123 -166 -259 -246 -347 l-58 -65 -64 60 c-86
80 -235 199 -372 297 -360 258 -879 497 -1332 613 -151 39 -157 41 -329 163
-153 109 -296 224 -400 323 -46 44 -85 79 -87 79 -2 -1 -51 -44 -109 -97z
m163 -165 c73 -61 98 -91 84 -101 -7 -5 -3 -6 9 -2 16 4 33 -5 65 -34 24 -22
48 -41 52 -41 12 0 -3 -20 -15 -20 -6 0 -9 3 -5 6 5 5 -40 54 -50 54 -2 0 1
-9 7 -20 6 -11 7 -20 3 -20 -4 0 -2 -4 6 -9 10 -7 7 -9 -11 -8 -18 2 -24 7
-20 20 5 18 -13 24 -23 7 -10 -16 -35 8 -36 34 0 11 -3 15 -6 9 -8 -22 -21
-14 -16 10 4 17 2 19 -5 8 -9 -12 -17 -10 -49 14 -21 16 -42 35 -46 42 -12 20
-31 16 -57 -12 -23 -24 -39 -34 -123 -77 -21 -10 -35 -23 -32 -28 4 -6 -1 -7
-11 -3 -10 4 -15 2 -11 -3 3 -5 -3 -10 -14 -10 -17 0 -17 2 6 21 13 11 54 45
91 75 37 30 83 72 103 92 20 20 40 37 45 37 4 1 31 -18 59 -41z m-2903 -280
c31 -66 38 -102 18 -96 -6 2 -18 15 -27 29 -15 23 -15 23 3 9 18 -14 18 -13
11 10 -15 50 -24 68 -34 75 -11 6 -15 35 -6 35 3 0 19 -28 35 -62z m2520 42
c-8 -6 -24 -16 -35 -22 l-20 -11 20 21 c11 11 27 21 35 21 13 1 13 0 0 -9z
m390 -86 c0 -8 -5 -12 -10 -9 -6 4 -8 11 -5 16 9 14 15 11 15 -7z m243 -64
l101 0 -27 -28 c-15 -15 -27 -34 -27 -42 0 -11 -3 -11 -12 -2 -8 8 -60 12
-167 12 l-155 0 29 30 c25 26 36 30 81 30 30 0 56 5 60 12 6 9 9 9 12 0 2 -8
35 -12 105 -12z m-289 -31 l-28 -29 -161 0 -161 0 -29 30 -28 29 101 3 c55 2
153 2 217 0 l118 -3 -29 -30z m-2779 -31 c13 -29 49 -98 80 -153 30 -55 55
-111 54 -125 l0 -25 -17 24 c-45 63 -162 296 -156 313 3 10 7 18 10 18 2 0 15
-24 29 -52z m2083 -61 c3 -22 -1 -27 -18 -27 -23 0 -35 22 -26 46 10 25 41 12
44 -19z m707 -20 l-46 -40 23 -24 c17 -18 18 -23 5 -17 -10 3 -17 1 -17 -5 0
-6 -4 -11 -10 -11 -5 0 -9 6 -7 13 1 7 -7 11 -21 9 -22 -3 -52 13 -52 27 0 4
20 27 44 52 40 41 47 44 84 41 l42 -4 -45 -41z m942 28 c42 -14 85 -33 97 -41
l21 -16 -22 7 c-18 5 -21 3 -18 -14 2 -12 -1 -21 -6 -21 -6 0 -7 -4 -4 -10 3
-5 2 -10 -3 -10 -6 0 -13 -12 -16 -26 -5 -17 -12 -24 -22 -20 -11 4 -12 2 -4
-13 8 -16 6 -21 -8 -24 -12 -3 -9 -5 8 -7 27 -1 14 -6 -140 -48 -89 -25 -75
-28 33 -7 43 8 82 15 85 14 21 -2 -54 -22 -123 -34 -147 -24 -171 -27 -160
-16 6 5 28 11 50 14 l40 4 -47 1 c-42 2 -46 4 -43 23 13 65 38 130 65 167 32
45 104 102 127 102 8 0 49 -11 90 -25z m-1107 5 l65 0 -35 -30 c-28 -24 -44
-30 -82 -30 -47 0 -48 -1 -48 -30 0 -31 -13 -37 -40 -20 -11 7 -17 5 -22 -8
-4 -9 -7 16 -7 57 l-1 74 53 -7 c28 -3 81 -6 117 -6z m630 -16 c0 -8 -5 -12
-10 -9 -6 4 -8 11 -5 16 9 14 15 11 15 -7z m-163 -46 c-6 -47 -4 -44 -44 -51
-30 -6 -33 -4 -33 17 0 23 -3 24 -60 22 -74 -3 -87 4 -58 32 23 21 104 32 172
23 27 -3 28 -6 23 -43z m310 0 c-3 -8 -6 -5 -6 6 -1 11 2 17 5 13 3 -3 4 -12
1 -19z m-1176 -40 c-17 -11 -36 -18 -42 -16 -7 2 3 14 21 25 19 12 38 19 43
16 5 -3 -5 -14 -22 -25z m-566 -48 c0 -27 -22 -39 -31 -16 -8 22 3 49 19 43 6
-2 12 -14 12 -27z m-1258 -214 c61 -117 65 -126 50 -125 -7 0 -29 35 -50 79
-20 43 -53 101 -72 129 -43 62 -45 74 -5 36 16 -16 51 -69 77 -119z m1783 84
c0 -5 -4 -10 -10 -10 -5 0 -10 5 -10 10 0 6 5 10 10 10 6 0 10 -4 10 -10z
m1508 -25 c-7 -9 -24 -27 -37 -41 -13 -14 -23 -36 -23 -50 0 -13 -3 -24 -7
-24 -10 0 -9 -65 1 -71 7 -4 6 -14 -1 -28 -10 -17 -9 -20 4 -15 11 4 13 2 10
-9 -4 -9 10 -25 41 -46 64 -42 42 -39 -32 4 -73 44 -116 92 -154 170 -51 106
-51 103 27 98 44 -3 84 1 113 10 63 21 74 21 58 2z m550 -8 c13 -16 -8 -63
-26 -59 -7 1 -12 -4 -12 -12 0 -11 -92 -216 -180 -401 -15 -33 -36 -82 -45
-109 -9 -27 -20 -57 -25 -65 -19 -33 -10 14 20 99 16 47 30 101 30 120 0 52
11 110 21 110 5 0 6 -21 3 -47 l-5 -48 26 60 c15 33 55 119 90 191 34 72 66
141 70 153 7 24 18 27 33 8z m-2428 -4 c-8 -3 -21 -10 -28 -16 -9 -7 -11 -6
-6 7 3 9 16 16 28 15 14 0 16 -2 6 -6z m1500 -13 c-16 -11 -40 -13 -40 -5 0 8
44 24 50 18 2 -2 -2 -8 -10 -13z m-2970 -63 c0 -4 16 -33 36 -64 19 -30 33
-57 31 -60 -7 -6 -37 40 -81 122 -31 57 -33 64 -12 40 14 -16 25 -34 26 -38z
m1090 33 c0 -5 -4 -10 -10 -10 -5 0 -10 5 -10 10 0 6 5 10 10 10 6 0 10 -4 10
-10z m-1240 -9 c1 18 35 -24 58 -71 10 -19 35 -66 56 -103 21 -37 36 -71 32
-74 -9 -9 -11 -6 -77 118 -33 63 -57 103 -54 89 5 -23 5 -23 -6 -5 -6 11 -19
29 -28 40 -15 18 -15 19 2 6 14 -11 17 -11 17 0z m1340 -1 c14 -4 18 -9 10
-10 -27 -4 -75 2 -90 11 -19 11 44 10 80 -1z m60 -10 c0 -5 -7 -7 -15 -4 -8 4
-12 10 -9 15 6 11 24 2 24 -11z m2820 0 c0 -11 -4 -20 -10 -20 -5 0 -10 9 -10
20 0 11 5 20 10 20 6 0 10 -9 10 -20z m-323 -27 c-3 -10 -5 -4 -5 12 0 17 2
24 5 18 2 -7 2 -21 0 -30z m-2350 21 c-3 -3 -12 -4 -19 -1 -8 3 -5 6 6 6 11 1
17 -2 13 -5z m388 -4 c3 -5 1 -10 -4 -10 -6 0 -11 5 -11 10 0 6 2 10 4 10 3 0
8 -4 11 -10z m-418 -16 c-3 -3 -12 -4 -19 -1 -8 3 -5 6 6 6 11 1 17 -2 13 -5z
m308 -12 c-3 -3 -11 0 -18 7 -9 10 -8 11 6 5 10 -3 15 -9 12 -12z m-745 -8 c0
-9 -5 -14 -12 -12 -18 6 -21 28 -4 28 9 0 16 -7 16 -16z m2036 -2 c14 -9 26
-80 14 -87 -12 -7 -40 41 -40 70 0 26 7 30 26 17z m-66 -89 c0 -5 -16 10 -35
31 -19 21 -32 43 -29 48 5 8 64 -64 64 -79z m-2312 29 c3 -17 -2 -22 -17 -22
-16 0 -21 6 -21 26 0 33 33 30 38 -4z m-436 -24 c-6 -7 -25 -22 -44 -32 l-33
-19 39 37 c21 20 41 35 44 32 3 -3 0 -11 -6 -18z m1873 12 c-3 -5 -10 -10 -16
-10 -5 0 -9 5 -9 10 0 6 7 10 16 10 8 0 12 -4 9 -10z m568 -31 c34 -10 73 -26
87 -35 16 -10 18 -13 5 -8 -11 4 -45 16 -75 27 -125 45 -297 31 -420 -34 l-55
-28 33 27 c27 24 113 57 197 76 38 9 166 -5 228 -25z m-2673 1 c6 -11 8 -20 6
-20 -3 0 -10 9 -16 20 -6 11 -8 20 -6 20 3 0 10 -9 16 -20z m4256 -5 c28 -21
34 -22 44 -10 7 8 16 12 21 9 15 -9 10 -22 -12 -29 -15 -5 -17 -10 -10 -19 8
-10 -2 -12 -47 -9 -77 6 -88 11 -24 12 52 1 69 14 33 26 -20 6 -60 45 -46 45
4 0 23 -11 41 -25z m-3966 -51 c0 -8 -4 -14 -8 -14 -11 0 -33 61 -26 72 7 11
34 -37 34 -58z m2763 22 c22 -21 39 -30 45 -24 12 12 82 -29 82 -50 0 -8 3
-13 6 -9 8 7 44 -24 44 -39 0 -6 13 -21 29 -33 19 -15 27 -29 24 -39 -4 -9 -2
-13 5 -9 6 4 13 -1 15 -10 3 -12 5 -10 6 8 0 14 -5 31 -11 38 -11 12 -10 13 6
7 11 -4 35 -9 55 -12 50 -8 52 -14 4 -14 l-40 0 -6 -67 c-4 -38 -7 -87 -7
-110 0 -24 -3 -43 -6 -43 -10 0 -54 53 -54 65 0 6 -16 27 -36 48 -19 20 -32
37 -28 37 4 0 -1 9 -11 20 -10 11 -13 20 -7 20 7 0 12 -3 12 -7 1 -5 23 -24
50 -43 50 -35 66 -58 33 -46 -17 6 -17 5 -1 -7 10 -8 22 -25 27 -38 7 -19 9
-11 9 39 1 34 4 68 8 75 5 7 0 5 -11 -3 -17 -14 -17 -13 -10 10 7 22 6 23 -8
11 -15 -12 -17 -10 -13 17 2 22 0 29 -10 25 -8 -3 -14 -9 -14 -14 0 -5 -15 5
-32 23 -18 18 -29 36 -25 39 5 3 -2 18 -16 33 -23 25 -40 34 -34 19 3 -12 -6
-15 -25 -8 -10 4 -15 11 -12 16 7 12 -55 71 -67 63 -5 -3 -6 3 -2 12 4 11 2
15 -4 11 -6 -4 -16 0 -23 8 -26 31 18 15 53 -19z m704 2 c-3 -7 -5 -2 -5 12 0
14 2 19 5 13 2 -7 2 -19 0 -25z m-667 13 c0 -6 -4 -13 -10 -16 -5 -3 -10 1
-10 9 0 9 5 16 10 16 6 0 10 -4 10 -9z m-2862 -21 c-12 -19 -38 -35 -38 -24 0
5 41 43 48 44 1 0 -3 -9 -10 -20z m-199 -20 c11 -24 11 -24 -3 -6 -9 11 -16
24 -16 30 0 12 5 7 19 -24z m2647 -14 c72 -33 108 -66 140 -128 27 -54 30 -75
10 -75 -8 0 -12 7 -9 16 4 13 2 12 -7 -1 -8 -14 -16 -15 -36 -8 -30 12 -64 13
-49 2 11 -7 45 -58 45 -66 0 -2 -17 0 -37 5 -21 4 -107 11 -191 15 l-153 7 30
20 c17 10 31 21 31 23 0 7 -35 -10 -81 -38 -25 -15 -57 -28 -69 -28 -21 0 -20
3 14 32 21 17 44 45 53 61 l15 30 -36 -22 c-29 -18 -36 -20 -36 -7 0 8 5 18
10 21 6 4 8 11 4 16 -3 6 -6 26 -6 45 0 44 -13 43 -74 -3 -46 -35 -48 -36 -26
-8 32 41 85 74 161 102 91 33 211 28 297 -11z m1677 -21 c-20 -27 -29 -30 -38
-15 -3 6 -16 10 -27 10 -29 0 -16 11 24 20 57 14 61 12 41 -15z m-2201 -43
c-69 -69 -111 -148 -119 -226 -6 -57 -9 -61 -37 -50 -25 9 -19 41 21 123 26
53 58 97 104 144 37 37 72 67 79 67 6 0 -15 -26 -48 -58z m-1741 -10 c82 -131
280 -491 298 -544 l19 -56 -25 -24 -26 -23 5 35 c6 43 -23 134 -57 175 -19 24
-23 26 -19 9 4 -13 0 -23 -9 -27 -12 -4 -14 2 -12 28 2 23 -1 35 -12 39 -9 4
-12 13 -8 25 7 23 -15 80 -38 100 -15 12 -17 11 -17 -7 0 -29 -20 -38 -21 -10
-1 40 -8 63 -19 66 -6 2 -8 17 -4 38 4 24 1 42 -10 59 -16 25 -17 25 -43 8
l-26 -17 6 44 c9 67 -29 142 -47 94 -4 -9 -9 -14 -12 -11 -6 6 25 57 35 57 3
-1 22 -27 42 -58z m3736 52 c-3 -3 -12 -4 -19 -1 -8 3 -5 6 6 6 11 1 17 -2 13
-5z m1243 -337 c-14 -93 -56 -217 -125 -375 l-59 -133 -16 58 c-9 32 -30 86
-48 120 l-31 62 21 38 21 38 -32 34 -32 34 27 28 c16 16 23 32 19 40 -5 7 -4
10 2 6 13 -8 36 17 25 28 -4 5 -2 5 5 1 14 -8 45 33 36 47 -3 6 -2 7 3 4 11
-6 77 98 77 119 0 7 4 11 8 8 5 -3 30 38 56 91 l48 96 3 -138 c1 -76 -2 -169
-8 -206z m-5695 113 c47 -93 99 -176 133 -212 20 -22 22 -28 10 -28 -9 0 -19
6 -21 13 -3 6 -4 -2 -3 -19 2 -17 22 -58 45 -92 l42 -62 -24 -33 c-32 -41 -55
-88 -76 -150 l-17 -50 -61 154 c-34 85 -71 186 -82 224 -30 101 -51 254 -51
375 l1 105 33 -75 c18 -41 50 -109 71 -150z m3986 173 c-12 -20 -14 -14 -5 12
4 9 9 14 11 11 3 -2 0 -13 -6 -23z m-716 -103 c14 -20 36 -63 49 -97 24 -61
24 -61 3 -67 -28 -7 -37 1 -37 33 0 49 -30 129 -67 178 -35 47 -35 47 -5 19
18 -16 43 -46 57 -66z m1679 75 c-4 -8 -10 -15 -15 -15 -5 0 -9 7 -9 15 0 8 7
15 15 15 9 0 12 -6 9 -15z m-4504 0 c0 -2 -10 -9 -22 -15 -22 -11 -22 -10 -4
4 21 17 26 19 26 11z m1623 -14 c3 -11 2 -22 -1 -25 -10 -10 -42 -6 -42 5 0 5
-6 7 -12 4 -7 -4 -2 3 11 14 29 26 37 26 44 2z m1663 -6 c-4 -11 2 -15 24 -15
17 0 31 -6 31 -12 3 -28 -2 -113 -7 -118 -3 -2 -4 22 -2 55 3 60 3 60 -26 63
-16 2 -36 11 -45 20 -15 15 -15 15 2 9 9 -3 17 -2 17 3 0 6 3 10 6 10 3 0 4
-7 0 -15z m427 -80 c-3 -9 -8 -14 -10 -11 -3 3 -2 9 2 15 9 16 15 13 8 -4z
m-3058 -65 c6 -10 -44 -35 -53 -26 -2 3 -2 12 1 21 7 17 42 21 52 5z m2682
-47 c-3 -10 -5 -4 -5 12 0 17 2 24 5 18 2 -7 2 -21 0 -30z m-730 1 c41 -8 102
-25 136 -37 l62 -22 3 -57 c4 -68 -22 -213 -44 -246 -20 -30 -88 -62 -134 -62
-41 0 -124 37 -189 84 -82 59 -83 60 -132 22 -90 -68 -156 -99 -214 -98 -52 0
-102 18 -122 44 -13 16 -53 216 -53 263 0 29 6 39 31 54 36 22 184 61 274 72
84 11 294 1 382 -17z m2126 -58 c-67 -35 -154 -88 -195 -118 -84 -63 -153
-110 -187 -128 l-24 -12 21 28 c12 16 51 61 86 99 59 64 66 68 78 53 12 -17
15 -17 43 2 87 59 252 138 290 139 6 0 -45 -28 -112 -63z m-4804 23 c29 -39
271 -529 271 -548 0 -12 -3 -10 -13 4 -27 40 -221 414 -279 538 -21 45 -10 48
21 6z m4271 -9 c0 -5 -2 -10 -4 -10 -3 0 -8 5 -11 10 -3 6 -1 10 4 10 6 0 11
-4 11 -10z m-2413 -124 c-1 -69 -5 -117 -9 -108 -4 9 -7 36 -7 60 -1 28 -5 41
-13 40 -17 -4 -13 35 10 89 9 24 18 43 19 43 1 0 1 -56 0 -124z m1554 51 c-6
-6 -11 -46 -11 -88 0 -61 -3 -78 -16 -83 -35 -13 -49 -6 -51 24 -2 21 1 28 9
24 8 -5 9 -2 5 10 -5 12 1 20 18 28 23 10 25 16 26 87 1 76 1 76 15 42 11 -24
12 -37 5 -44z m-1493 -107 c0 -69 -1 -71 -9 -30 -4 25 -7 81 -7 125 1 75 1 77
8 30 5 -27 8 -84 8 -125z m1117 115 c13 -32 16 -58 11 -97 -11 -90 -23 -85
-29 14 -4 51 -9 104 -13 117 -12 41 13 15 31 -34z m617 27 c10 -10 15 -162 6
-162 -5 0 -8 33 -8 74 l0 74 -47 6 c-27 4 -65 9 -86 12 l-37 6 4 -36 c2 -20 0
-36 -5 -36 -5 0 -9 9 -9 21 0 11 -4 17 -10 14 -6 -4 -8 -16 -4 -27 4 -15 3
-18 -7 -13 -9 6 -11 2 -7 -13 6 -22 -11 -72 -24 -72 -13 0 4 96 23 126 25 42
24 51 -3 28 -23 -19 -23 -19 -6 1 16 19 24 20 115 13 53 -4 100 -11 105 -16z
m-679 -85 c-6 -86 -22 -141 -23 -77 0 67 13 169 21 164 5 -2 6 -42 2 -87z
m-2260 76 c-7 -2 -21 -2 -30 0 -10 3 -4 5 12 5 17 0 24 -2 18 -5z m50 0 c-7
-2 -19 -2 -25 0 -7 3 -2 5 12 5 14 0 19 -2 13 -5z m2474 -80 c-2 -16 -4 -3 -4
27 0 30 2 43 4 28 2 -16 2 -40 0 -55z m-2473 58 c3 -5 -13 -9 -37 -9 -35 1
-38 2 -17 8 35 11 48 11 54 1z m4266 -75 c0 -3 -4 -8 -10 -11 -5 -3 -10 -1
-10 4 0 6 5 11 10 11 6 0 10 -2 10 -4z m-1926 -131 c10 -51 -2 -117 -30 -161
-23 -38 -23 -38 -24 -11 0 17 5 27 15 27 18 0 21 76 3 82 -9 3 -9 15 1 51 16
56 26 59 35 12z m-1657 -21 c15 -4 15 -6 3 -14 -21 -13 -38 -12 -20 1 12 9 11
10 -7 6 -15 -3 -23 0 -23 9 0 7 7 11 15 9 8 -3 23 -7 32 -11z m-60 -23 c-4
-17 -1 -19 32 -14 20 3 33 3 29 -1 -3 -4 -24 -10 -46 -12 -38 -4 -39 -3 -35
21 3 14 10 25 15 25 6 0 8 -9 5 -19z m-480 -78 c-3 -10 -5 -4 -5 12 0 17 2 24
5 18 2 -7 2 -21 0 -30z m294 5 c0 -20 1 -21 8 -5 6 15 9 12 21 -17 13 -35 15
-36 67 -36 l53 0 0 -41 0 -40 -56 3 -55 3 -3 -85 c-3 -83 -11 -120 -25 -120
-7 0 -31 257 -31 328 0 36 20 45 21 10z m-234 -20 c-3 -7 -5 -2 -5 12 0 14 2
19 5 13 2 -7 2 -19 0 -25z m1576 -45 c47 -32 84 -60 82 -61 -2 -2 -32 12 -68
32 -51 29 -74 36 -118 36 -34 0 -63 -6 -77 -16 -13 -9 -26 -14 -28 -11 -8 8
87 77 107 77 9 0 55 -26 102 -57z m2993 -105 c-38 -215 -101 -396 -190 -543
-20 -33 -36 -69 -36 -80 -1 -18 -4 -16 -27 10 -15 17 -30 29 -33 28 -8 -2
-135 137 -168 183 -19 29 -20 33 -6 45 13 11 22 5 64 -41 l48 -53 36 49 c20
27 45 69 57 94 11 25 25 52 30 60 5 8 17 31 27 50 73 136 211 354 219 346 2
-2 -7 -69 -21 -148z m-6140 -23 c21 -33 54 -89 75 -125 20 -36 56 -94 80 -129
24 -35 49 -72 55 -83 7 -11 34 -42 60 -69 l48 -49 -21 -22 c-12 -13 -42 -54
-67 -91 l-45 -69 -34 54 c-61 94 -130 248 -176 388 -18 55 -82 336 -81 358 0
4 16 -18 34 -48 19 -30 51 -82 72 -115z m1337 113 c14 -18 32 -47 41 -64 15
-31 15 -32 -6 -38 -12 -3 -23 -4 -24 -3 -7 11 -54 121 -54 128 0 19 20 8 43
-23z m2112 10 c-8 -20 -59 -48 -87 -47 -20 1 -19 2 8 10 16 5 41 20 54 34 25
26 34 28 25 3z m1053 -5 c-14 -17 -100 -64 -106 -58 -11 11 68 73 92 71 18 -1
22 -4 14 -13z m-3808 -30 c0 -7 -39 17 -46 28 -3 6 5 3 20 -6 14 -10 26 -19
26 -22z m4323 20 c28 -23 222 -127 275 -149 67 -28 86 -30 78 -9 -4 12 -2 13
14 3 26 -17 11 -30 -39 -34 -33 -3 -58 6 -158 59 -65 35 -131 72 -146 81 -34
23 -200 34 -223 15 -11 -9 -14 -8 -14 4 0 28 47 44 126 41 41 -1 80 -6 87 -11z
m-2292 -133 c23 -47 51 -98 62 -115 11 -18 -2 -8 -35 25 -57 60 -118 163 -118
201 l0 24 24 -25 c13 -14 43 -63 67 -110z m-1 96 c0 -9 -41 8 -52 22 -11 13
-8 12 20 -2 17 -9 32 -18 32 -20z m971 -4 l32 -28 -28 -56 c-15 -30 -38 -67
-51 -82 -27 -28 -47 -28 -111 1 -28 13 -33 21 -33 48 0 61 15 85 54 85 48 0
66 9 77 36 11 31 22 30 60 -4z m1791 -12 c10 -14 21 -43 23 -65 l5 -40 -12 33
c-14 42 -52 82 -77 82 -11 0 -33 -12 -50 -26 -23 -19 -31 -22 -31 -11 0 9 12
25 28 36 37 28 89 24 114 -9z m-2052 -30 c-17 -32 -22 -19 -7 19 7 20 13 27
15 18 2 -9 -2 -26 -8 -37z m725 15 c0 -11 -8 -21 -17 -23 -14 -3 -18 3 -18 23
0 20 4 26 18 23 9 -2 17 -12 17 -23z m-2180 -14 c3 -5 1 -12 -5 -16 -5 -3 -10
1 -10 9 0 18 6 21 15 7z m-558 -71 c82 -148 236 -445 294 -565 58 -120 68
-148 59 -165 -13 -25 -22 -26 -19 -2 2 9 -1 28 -5 42 -11 34 -244 479 -318
608 -36 62 -57 110 -53 119 7 19 16 11 42 -37z m-127 31 c0 -9 -24 -21 -41
-21 -21 0 -7 26 16 28 14 1 25 -2 25 -7z m36 -89 c17 -31 58 -104 91 -162 106
-186 136 -243 124 -236 -7 4 -25 31 -42 59 -16 29 -48 81 -71 117 -61 98 -148
255 -148 268 0 26 16 9 46 -46z m4104 38 c0 -5 -5 -10 -11 -10 -5 0 -7 5 -4
10 3 6 8 10 11 10 2 0 4 -4 4 -10z m-3515 -26 c0 -12 -8 -20 -22 -22 -25 -4
-31 16 -11 36 17 17 33 10 33 -14z m1515 -15 c-19 -35 -91 -109 -123 -126 -44
-22 -43 -10 2 21 22 15 59 52 82 81 44 55 61 65 39 24z m2172 5 c34 -18 43
-33 28 -47 -9 -9 -14 -8 -23 3 -33 42 -127 60 -127 24 0 -8 -4 -14 -10 -14 -5
0 -10 13 -10 28 l0 29 58 -5 c31 -2 69 -11 84 -18z m-192 -3 c0 -5 -7 -12 -16
-15 -24 -9 -28 -7 -14 9 14 17 30 20 30 6z m-4302 -65 c-16 -29 -59 -66 -113
-96 -46 -26 -227 -101 -232 -97 -1 2 39 23 90 48 97 46 223 124 246 152 19 24
24 21 9 -7z m1607 4 c10 -11 16 -20 13 -20 -3 0 -13 9 -23 20 -10 11 -16 20
-13 20 3 0 13 -9 23 -20z m2222 14 c-3 -3 -12 -4 -19 -1 -8 3 -5 6 6 6 11 1
17 -2 13 -5z m632 -15 c-22 -14 -33 -10 -19 6 7 8 17 12 22 9 6 -4 5 -10 -3
-15z m-4345 -5 c3 -8 2 -12 -4 -9 -6 3 -10 10 -10 16 0 14 7 11 14 -7z m531
-45 c44 -12 85 -22 92 -23 7 -1 16 -6 20 -10 15 -16 -206 40 -222 56 -7 7 -3
8 10 5 11 -3 56 -16 100 -28z m662 -11 c-3 -7 -5 -2 -5 12 0 14 2 19 5 13 2
-7 2 -19 0 -25z m393 -5 c0 -7 -39 17 -46 28 -3 6 5 3 20 -6 14 -10 26 -19 26
-22z m2842 15 c-9 -9 -42 -1 -42 12 0 4 12 5 26 2 15 -3 22 -8 16 -14z m-2293
-19 c-44 -62 -179 -154 -253 -173 -40 -10 -31 0 25 29 45 22 123 76 139 96 6
7 104 78 108 79 2 0 -7 -14 -19 -31z m-950 -9 c4 -3 12 -17 18 -32 26 -58 126
-199 186 -259 34 -35 116 -105 182 -154 161 -121 162 -122 70 -76 -44 22 -160
79 -257 127 -205 100 -293 155 -318 197 -17 27 -17 33 -4 58 19 37 35 45 49
25 39 -53 51 -66 61 -70 9 -4 10 3 2 27 -5 18 -17 58 -25 90 -15 54 -15 59 3
78 14 15 20 17 23 7 2 -7 7 -15 10 -18z m1296 -73 c0 -48 2 -83 3 -77 2 5 10
10 17 10 8 0 23 12 34 26 l21 27 15 -36 c20 -48 19 -73 -4 -94 -21 -19 -34
-26 -376 -196 -116 -57 -230 -116 -254 -131 -78 -50 -33 -10 106 95 239 178
351 309 389 457 2 8 14 12 26 10 22 -3 23 -7 23 -91z m-2565 79 c0 -2 -8 -10
-17 -17 -16 -13 -17 -12 -4 4 13 16 21 21 21 13z m4545 -6 c3 -5 3 -15 -1 -21
-6 -11 -23 6 -24 24 0 10 18 9 25 -3z m160 -3 c-50 -34 -133 -76 -138 -71 -3
3 -3 12 0 20 4 11 8 12 19 3 11 -9 13 -9 9 2 -8 23 11 45 27 31 11 -8 21 -7
44 8 34 21 70 28 39 7z m-4085 -37 c18 -12 2 -12 -25 0 -13 6 -15 9 -5 9 8 0
22 -4 30 -9z m253 -67 c-7 -2 -21 -2 -30 0 -10 3 -4 5 12 5 17 0 24 -2 18 -5z
m3367 -100 c0 -20 -24 -11 -28 10 -2 12 1 15 12 11 9 -3 16 -13 16 -21z
m-3770 -84 c15 -28 5 -23 -15 7 -9 15 -12 23 -6 20 6 -4 16 -16 21 -27z
m-1174 -30 c3 -6 1 -15 -6 -19 -6 -4 -11 -11 -10 -16 3 -16 -17 -15 -23 1 -13
33 21 63 39 34z m3491 -20 c48 -17 90 -34 93 -37 3 -4 3 -25 -1 -47 l-6 -40
-2 36 -1 37 -82 26 c-102 32 -106 32 -120 1 -16 -36 -28 -31 -17 7 8 29 24 47
41 48 3 0 46 -14 95 -31z m1706 7 c-8 -38 -33 -42 -33 -6 0 23 5 30 19 30 14
0 17 -6 14 -24z m-3998 6 c-3 -3 3 -14 12 -24 9 -10 18 -29 20 -41 2 -12 9
-26 16 -32 8 -5 20 -25 28 -42 7 -18 18 -33 22 -33 5 0 5 -4 2 -10 -3 -5 -2
-18 4 -28 5 -10 6 -32 1 -52 l-8 -35 -1 36 c-1 34 -12 59 -89 204 -18 33 -32
60 -32 61 0 0 7 1 15 1 8 0 13 -3 10 -5z m663 -57 c2 -25 1 -27 -8 -12 -15 23
-32 22 -90 -8 -31 -16 -50 -32 -50 -43 -1 -15 -2 -15 -11 2 -14 23 -1 37 66
70 65 33 89 30 93 -9z m51 21 c6 -7 22 -33 35 -57 37 -72 207 -363 217 -373
11 -12 12 -26 0 -26 -12 0 -47 56 -141 225 -45 83 -95 169 -111 192 -16 23
-29 44 -29 47 0 11 17 6 29 -8z m3341 -1 c0 -8 -7 -15 -15 -15 -13 0 -14 3 -3
15 16 18 18 18 18 0z m-4108 -32 c31 -34 58 -86 57 -110 0 -14 -2 -15 -6 -3
-12 36 -68 120 -80 120 -6 0 -15 5 -18 10 -14 22 23 8 47 -17z m2102 -80 c-32
-54 -63 -102 -68 -108 -6 -5 -22 -35 -36 -65 -14 -30 -35 -66 -47 -80 -36 -40
-40 -45 -52 -69 -7 -12 -15 -21 -17 -18 -9 9 166 308 239 410 52 71 40 29 -19
-70z m2063 81 c-3 -3 -12 -4 -19 -1 -8 3 -5 6 6 6 11 1 17 -2 13 -5z m-1906
-37 c-13 -13 -26 -3 -16 12 3 6 11 8 17 5 6 -4 6 -10 -1 -17z m2455 -84 c-65
-248 -201 -421 -399 -508 l-58 -25 33 47 c55 80 154 292 141 303 -4 3 -75 3
-158 0 -82 -3 -151 -5 -153 -4 -3 1 51 30 188 101 36 18 97 46 135 63 39 16
120 51 180 78 61 27 111 48 113 47 2 -2 -8 -47 -22 -102z m-2161 76 c30 -11
55 -26 55 -32 -1 -13 -69 -146 -70 -136 0 3 5 20 11 38 13 36 -4 91 -27 91 -8
0 -14 5 -14 11 0 6 -6 9 -14 6 -9 -4 -13 2 -13 19 0 29 2 29 72 3z m-4335 -47
c18 -24 69 -74 114 -111 59 -50 102 -98 156 -175 41 -59 96 -137 122 -174 46
-65 61 -101 36 -85 -7 4 -24 9 -37 11 -41 5 -161 71 -207 114 -24 22 -62 70
-85 106 -64 101 -83 148 -145 357 -7 23 -1 18 46 -43z m4090 36 c0 -5 4 -7 8
-4 4 2 14 0 22 -6 12 -8 12 -9 -2 -4 -10 3 -18 1 -18 -4 0 -6 -9 -5 -20 2 -23
15 -27 40 -5 32 8 -4 15 -10 15 -16z m-125 -60 c-15 -52 -15 -53 51 -86 47
-24 77 -20 92 11 8 17 11 18 11 5 1 -9 -3 -27 -8 -40 -5 -13 -12 -31 -15 -41
-5 -17 -8 -16 -38 7 -18 13 -55 34 -82 45 -44 20 -48 24 -43 49 7 35 37 105
42 100 2 -2 -2 -25 -10 -50z m-1675 35 c0 -5 -14 -26 -30 -47 -17 -22 -30 -46
-30 -54 0 -9 -6 -12 -15 -8 -13 5 -15 -1 -10 -32 4 -34 4 -35 -5 -8 -13 42 3
106 35 134 25 21 55 30 55 15z m125 -3 c-3 -5 -12 -10 -18 -10 -7 0 -6 4 3 10
19 12 23 12 15 0z m52 -17 c3 -7 -4 -9 -16 -6 -12 3 -18 9 -15 15 7 11 26 6
31 -9z m2067 -55 c81 -67 218 -220 313 -348 97 -132 239 -389 310 -560 33 -81
104 -312 122 -398 16 -78 14 -153 -6 -182 -55 -82 -155 -179 -124 -121 12 21
43 172 37 178 -2 2 -15 -1 -30 -7 -39 -15 -138 -12 -177 4 -19 8 -62 37 -97
65 l-62 51 6 -97 c7 -104 -2 -115 -30 -38 l-15 40 0 -32 c-1 -40 -12 -41 -77
-7 -62 33 -90 59 -103 96 -10 27 -5 25 50 -26 123 -115 75 -46 -89 124 -57 60
-61 62 -48 30 20 -50 29 -122 21 -170 -4 -23 -9 -39 -12 -36 -3 2 -9 39 -14
82 -15 114 -58 203 -120 242 l-29 18 127 12 c71 7 206 13 300 15 95 1 173 5
173 8 0 13 -33 19 -108 20 l-77 0 60 24 c33 13 93 29 134 36 88 15 75 23 -49
33 -168 13 -215 24 -259 62 -54 47 -191 256 -209 319 -8 31 -11 73 -8 110 l6
60 -57 -83 -58 -84 -5 89 c-3 48 -8 79 -12 68 -10 -33 2 62 23 175 28 144 79
300 99 300 4 0 47 -32 94 -72z m-1985 13 c10 -32 15 -99 4 -74 -6 16 -58 -5
-108 -43 -19 -14 -35 -22 -35 -17 0 11 47 53 59 53 5 0 21 14 36 32 20 24 26
40 23 65 -5 39 5 32 21 -16z m1127 26 c-16 -12 -41 -32 -55 -45 -20 -17 -14
-16 25 8 28 16 54 30 58 30 9 0 -39 -40 -77 -64 -16 -10 -26 -20 -22 -24 3 -4
9 -2 13 3 6 9 56 35 67 35 2 0 2 -16 0 -35 -2 -19 1 -35 7 -35 5 0 6 5 3 10
-3 6 -1 10 5 10 7 0 10 -3 8 -7 -41 -93 -94 -185 -111 -195 -12 -6 -76 -14
-142 -18 -136 -7 -131 -8 144 -29 74 -6 138 -14 143 -19 4 -4 -167 -6 -380 -4
-213 2 -449 0 -524 -5 -76 -4 -138 -5 -138 -1 0 5 1 8 3 8 1 0 52 7 112 15 61
8 146 15 190 16 123 1 135 15 20 22 -179 12 -165 5 -216 114 -57 123 -58 130
-14 61 20 -32 40 -58 45 -58 12 0 0 38 -14 43 -7 3 -13 19 -14 36 0 19 3 29 9
25 6 -3 5 3 -2 14 -7 12 -17 19 -21 16 -4 -3 -5 2 -2 10 5 14 9 14 37 -1 18
-9 35 -21 39 -27 5 -7 8 -6 8 4 0 8 -23 32 -51 53 -29 20 -45 37 -37 37 24 0
214 -118 323 -201 55 -41 106 -79 113 -83 8 -5 38 13 85 52 106 87 212 160
302 209 89 48 104 53 61 20z m2059 13 c-7 -11 -65 -43 -65 -36 0 4 62 45 68
46 2 0 0 -5 -3 -10z m-1734 -41 c-6 -16 -10 -18 -10 -7 -1 22 12 55 16 42 2
-6 -1 -22 -6 -35z m-2313 13 c22 -11 45 -40 73 -90 44 -80 46 -94 5 -32 -15
23 -31 38 -36 35 -6 -4 -7 2 -3 12 3 10 3 15 -2 11 -4 -4 -13 -1 -19 7 -6 8
-35 23 -65 33 -30 10 -57 24 -59 30 -6 19 69 15 106 -6z m745 3 c4 -8 2 -17
-3 -20 -6 -4 -10 3 -10 14 0 25 6 27 13 6z m3197 -32 c-81 -38 -90 -41 -90
-34 0 9 89 49 110 49 8 1 -1 -7 -20 -15z m-4199 -134 c18 -35 8 -31 -41 15
-27 25 -55 46 -61 46 -7 0 -9 3 -6 7 4 3 -1 16 -10 27 -10 11 10 -2 45 -29 35
-27 68 -57 73 -66z m2536 49 c14 -19 14 -60 0 -52 -7 3 -4 -1 7 -10 10 -8 16
-20 14 -27 -2 -7 -16 -1 -36 16 -26 22 -32 34 -32 66 0 35 2 39 18 30 10 -5
23 -16 29 -23z m-1402 -27 c-4 -18 -22 -44 -43 -61 -34 -28 -70 -41 -57 -21 3
5 1 12 -5 16 -19 12 -10 43 18 61 28 20 85 43 90 38 2 -1 1 -16 -3 -33z m1450
-19 c-3 -3 -11 0 -18 7 -9 10 -8 11 6 5 10 -3 15 -9 12 -12z m-2117 -82 c7 0
12 -4 12 -10 0 -17 -14 -11 -55 26 -38 34 -39 35 -4 10 20 -14 41 -26 47 -26z
m-343 -89 c-15 -31 -35 -49 -35 -33 0 10 39 62 46 62 2 0 -2 -13 -11 -29z m55
19 c0 -5 -4 -10 -10 -10 -5 0 -10 5 -10 10 0 6 5 10 10 10 6 0 10 -4 10 -10z
m348 -13 c-16 -12 -56 -37 -90 -55 -72 -38 -49 -15 29 30 29 16 56 34 59 39 3
5 11 9 17 9 7 -1 0 -11 -15 -23z m3459 -19 c-3 -7 -5 -2 -5 12 0 14 2 19 5 13
2 -7 2 -19 0 -25z m-1427 2 c0 -5 -5 -10 -11 -10 -5 0 -7 5 -4 10 3 6 8 10 11
10 2 0 4 -4 4 -10z m-2004 -50 c7 -19 43 -114 80 -210 36 -96 99 -258 139
-360 85 -216 106 -278 97 -283 -4 -2 -37 -21 -74 -41 -80 -44 -92 -42 -15 3
85 49 81 40 53 112 -13 35 -45 111 -71 169 -127 286 -245 592 -245 632 0 30
21 17 36 -22z m3254 15 c0 -14 -2 -25 -4 -25 -2 0 -6 11 -8 25 -3 14 -1 25 3
25 5 0 9 -11 9 -25z m-2410 -19 c0 -9 -30 -14 -35 -6 -4 6 3 10 14 10 12 0 21
-2 21 -4z m1107 -12 c-3 -3 -12 -4 -19 -1 -8 3 -5 6 6 6 11 1 17 -2 13 -5z
m-2614 -29 c31 0 57 -1 57 -3 0 -1 -12 -7 -26 -12 -32 -13 -117 -3 -141 16
-16 12 -14 13 17 6 19 -4 61 -7 93 -7z m367 -15 c20 -37 40 -183 39 -285 0
-55 -2 -95 -4 -90 -2 6 -13 43 -26 83 -14 46 -27 71 -35 68 -7 -3 -17 17 -27
52 -23 88 -30 135 -18 127 6 -3 11 0 11 7 0 17 28 58 40 58 5 0 14 -9 20 -20z
m2024 0 c174 -18 237 -55 250 -145 l6 -40 -13 42 c-26 89 -60 104 -277 124
-191 17 -850 1 -1040 -26 -27 -4 -30 -3 -14 4 87 37 854 66 1088 41z m-3394
-56 c0 -14 -5 -24 -11 -22 -6 2 -10 7 -10 11 1 4 1 14 1 22 0 8 5 15 10 15 6
0 10 -12 10 -26z m190 1 c0 -8 -4 -15 -10 -15 -5 0 -7 7 -4 15 4 8 8 15 10 15
2 0 4 -7 4 -15z m2598 1 c-102 -12 -138 -28 -138 -65 0 -10 -7 -24 -15 -31
-24 -20 -19 26 6 62 29 41 50 47 154 46 l90 -1 -97 -11z m-518 -6 c-8 -5 -19
-10 -25 -10 -5 0 -3 5 5 10 8 5 20 10 25 10 6 0 3 -5 -5 -10z m-1995 -50 c8
-13 -65 -13 -85 0 -11 7 -2 10 32 10 26 0 50 -4 53 -10z m1000 -69 c4 -39 4
-75 0 -81 -9 -15 -84 -52 -94 -45 -5 2 -7 29 -6 59 l4 54 -32 -9 c-62 -18 -71
-8 -14 15 32 13 72 36 90 50 18 14 35 25 38 26 4 0 10 -31 14 -69z m1492 12
c-3 -10 -5 -4 -5 12 0 17 2 24 5 18 2 -7 2 -21 0 -30z m194 21 c27 -32 13
-112 -17 -100 -10 4 -12 2 -8 -6 5 -8 2 -9 -10 -5 -10 4 -26 7 -37 7 -26 0
-59 35 -59 62 0 12 7 30 17 40 21 23 95 25 114 2z m359 -36 c0 -28 -1 -30 -13
-15 -9 13 -37 20 -106 27 -52 6 -97 12 -99 15 -3 3 45 5 106 5 l112 0 0 -32z
m-3050 2 c-8 -5 -24 -10 -35 -10 -17 0 -17 2 -5 10 8 5 24 10 35 10 17 0 17
-2 5 -10z m3264 4 c9 -3 16 -16 16 -28 -1 -20 -1 -20 -15 -2 -11 14 -24 17
-59 14 -25 -2 -46 0 -46 4 0 14 76 23 104 12z m1454 -9 c57 -8 107 -17 111
-19 4 -3 38 -8 76 -11 72 -7 99 -15 52 -15 -56 0 -372 42 -381 51 -14 13 21
11 142 -6z m-2200 -89 c13 -11 45 -16 127 -19 l110 -3 -122 -2 c-137 -2 -145
2 -141 70 l1 33 4 -31 c2 -18 12 -39 21 -48z m2585 67 c-7 -2 -21 -2 -30 0
-10 3 -4 5 12 5 17 0 24 -2 18 -5z m-4218 -46 c0 -37 -19 -35 -26 3 -6 25 -4
30 10 28 10 -2 16 -13 16 -31z m4205 16 c2 -2 -19 -3 -48 -2 -28 2 -52 6 -52
10 0 7 91 0 100 -8z m-5167 -40 c-7 -2 -19 -2 -25 0 -7 3 -2 5 12 5 14 0 19
-2 13 -5z m2311 -4 c12 -11 -19 -192 -33 -197 -8 -3 -11 0 -7 6 3 6 -2 18 -11
28 -16 16 -16 17 -1 12 14 -6 17 3 20 63 l3 69 -157 0 c-86 0 -163 -3 -172 -6
-11 -4 -16 -20 -17 -48 0 -22 -4 -61 -8 -86 -7 -39 -9 -32 -10 46 -1 104 2
110 69 117 61 6 317 3 324 -4z m-1864 -3 c0 -2 -7 -7 -16 -10 -8 -3 -12 -2 -9
4 6 10 25 14 25 6z m715 -53 c11 -36 19 -91 19 -142 1 -66 3 -78 10 -58 19 52
29 28 23 -50 -12 -164 -77 -335 -133 -349 -29 -7 -94 23 -149 70 l-40 35 47
-17 c26 -9 49 -14 52 -12 2 3 -11 37 -29 75 -32 65 -80 204 -73 210 2 1 20 10
41 20 33 16 50 35 29 35 -5 0 -35 16 -68 36 -32 21 -93 52 -134 71 -60 27 -67
32 -35 26 87 -17 185 -8 273 26 46 18 95 44 110 57 15 13 30 24 33 24 4 0 14
-26 24 -57z m1793 40 c-10 -2 -26 -2 -35 0 -10 3 -2 5 17 5 19 0 27 -2 18 -5z
m-868 -73 c11 -7 -5 -10 -52 -10 -39 0 -68 4 -68 10 0 13 100 13 120 0z m4
-30 c-11 -4 -36 -5 -55 0 -31 7 -29 8 21 8 39 1 49 -2 34 -8z m-1860 -39 c16
-17 16 -19 -6 -25 -38 -10 -48 -7 -48 13 0 17 11 28 31 30 3 1 14 -7 23 -18z
m1057 -303 l-8 -233 0 280 c0 168 2 261 7 233 5 -26 5 -152 1 -280z m4319 282
c0 -11 -6 -20 -14 -20 -18 0 -29 16 -21 30 11 18 35 11 35 -10z m-594 -16 c-3
-9 -6 -22 -6 -30 0 -9 -4 -13 -9 -10 -11 7 -2 56 11 56 6 0 7 -7 4 -16z
m-3424 -46 c-7 -7 -12 -8 -12 -2 0 14 12 26 19 19 2 -3 -1 -11 -7 -17z m1532
-38 c-6 -6 -142 -12 -339 -15 -185 -3 -334 -10 -339 -15 -5 -5 -12 -35 -14
-67 -5 -55 -6 -56 -13 -23 -12 55 0 109 25 115 58 13 693 18 680 5z m337 -19
c30 -10 81 -32 114 -48 51 -26 65 -40 97 -94 21 -34 35 -65 33 -68 -3 -3 -19
11 -36 30 -29 32 -31 30 -13 -15 7 -17 4 -19 -30 -13 -21 3 -85 24 -144 46
-59 22 -118 41 -132 44 -22 3 -21 4 10 10 19 3 65 9 103 12 38 4 65 11 61 16
-9 15 -101 59 -126 61 -13 1 -50 -6 -82 -16 -55 -16 -106 -15 -106 2 1 11 121
50 161 51 20 1 60 -7 90 -18z m-1231 -11 c-14 -4 -86 -8 -160 -7 -110 0 -122
2 -65 7 104 10 255 10 225 0z m727 4 c-3 -3 -12 -4 -19 -1 -8 3 -5 6 6 6 11 1
17 -2 13 -5z m-3109 -73 c3 -8 -1 -12 -9 -9 -7 2 -15 10 -17 17 -3 8 1 12 9 9
7 -2 15 -10 17 -17z m3927 -5 c28 -13 61 -36 75 -51 l25 -27 -37 22 c-21 12
-38 19 -38 15 0 -4 18 -27 40 -52 50 -57 52 -74 3 -34 -52 43 -65 41 -58 -11
l6 -43 -17 44 c-20 56 -39 87 -78 129 l-30 32 30 0 c16 0 52 -11 79 -24z
m-3655 -46 c0 -21 -24 -28 -35 -10 -8 14 3 30 21 30 8 0 14 -9 14 -20z m4859
-124 c1 -49 -1 -87 -3 -85 -2 2 -6 51 -10 109 -3 66 -2 98 3 85 5 -11 10 -60
10 -109z m-46 94 c3 -11 1 -20 -4 -20 -5 0 -9 9 -9 20 0 11 2 20 4 20 2 0 6
-9 9 -20z m4 -52 c-3 -8 -6 -5 -6 6 -1 11 2 17 5 13 3 -3 4 -12 1 -19z m-4767
-49 c0 -24 -17 -44 -46 -53 -14 -4 -27 1 -44 19 -26 28 -26 28 15 43 50 18 75
15 75 -9z m2250 -14 c-9 -11 -1 -15 47 -20 99 -11 101 -13 8 -11 -85 1 -90 2
-93 24 -2 16 3 25 20 31 26 10 36 -2 18 -24z m1124 16 c11 -17 -111 -28 -161
-15 -13 4 -23 10 -23 15 0 12 177 12 184 0z m-1491 -21 c2 -3 -5 -44 -17 -92
-20 -86 -36 -113 -36 -63 0 28 -9 31 -30 13 -8 -7 -5 -2 7 12 12 14 26 38 32
53 22 56 20 57 -98 57 -126 0 -127 -1 -146 -88 -11 -48 -13 -52 -14 -22 -1 53
16 113 36 128 13 10 50 12 140 10 67 -2 123 -5 126 -8z m241 4 c29 -11 16 -19
-36 -22 -29 -2 -54 -5 -56 -7 -2 -2 -7 -35 -10 -72 l-6 -68 -7 60 c-9 72 -4
93 24 105 26 10 69 12 91 4z m3061 -4 c-3 -5 -10 -10 -16 -10 -5 0 -9 5 -9 10
0 6 7 10 16 10 8 0 12 -4 9 -10z m-4895 -42 c0 -7 3 -30 6 -50 6 -34 4 -39
-22 -49 -16 -7 -41 -14 -56 -16 -25 -4 -28 -1 -28 22 0 24 1 25 16 11 19 -20
32 -20 64 0 l25 15 -27 -4 c-16 -2 -28 0 -28 4 0 5 6 9 14 9 13 0 26 20 26 41
0 5 -8 9 -17 9 -15 0 -16 2 -3 10 20 13 30 12 30 -2z m740 -56 c-8 -18 -7 -28
1 -38 9 -11 8 -20 -5 -39 -19 -29 -27 -30 -71 -9 l-34 16 50 61 c27 33 49 66
50 71 0 6 5 0 10 -14 7 -17 7 -32 -1 -48z m-1065 49 c3 -5 1 -12 -5 -16 -5 -3
-10 1 -10 9 0 18 6 21 15 7z m3384 -25 c-9 -9 -99 -45 -99 -40 0 6 81 43 94
44 5 0 7 -2 5 -4z m1561 -53 c0 -18 -39 -16 -46 2 -4 8 0 22 7 31 12 14 14 14
26 -2 7 -10 13 -24 13 -31z m-3860 7 c0 -5 -4 -10 -10 -10 -5 0 -10 5 -10 10
0 6 5 10 10 10 6 0 10 -4 10 -10z m-419 -112 c46 -80 162 -208 189 -208 6 0
10 -4 10 -9 0 -10 -56 1 -87 17 -42 23 -100 102 -131 179 -25 64 -57 174 -36
123 4 -8 28 -54 55 -102z m2448 45 c2 -2 -3 -3 -12 -3 -9 0 -22 10 -28 23
l-12 22 24 -20 c13 -11 26 -21 28 -22z m1777 -18 c-4 -25 -12 -45 -18 -45 -6
0 -7 7 -3 18 5 9 10 32 13 50 2 18 7 31 9 28 3 -3 2 -26 -1 -51z m-1336 10 c0
-13 -218 -100 -280 -111 -40 -7 56 34 155 67 49 16 97 34 105 39 17 11 20 12
20 5z m-3647 -74 c59 -16 111 -31 114 -35 13 -12 -8 -19 -62 -20 -34 -1 -56
-6 -60 -13 -7 -19 -39 -16 -57 5 -23 25 -56 92 -45 92 1 0 51 -13 110 -29z
m2560 12 c-7 -2 -19 -2 -25 0 -7 3 -2 5 12 5 14 0 19 -2 13 -5z m695 -40 c9
-7 12 -13 6 -13 -17 0 -31 15 -38 40 -6 23 -6 23 5 5 6 -11 19 -26 27 -32z
m-705 10 c-7 -2 -21 -2 -30 0 -10 3 -4 5 12 5 17 0 24 -2 18 -5z m74 -9 c-3
-3 -12 -4 -19 -1 -8 3 -5 6 6 6 11 1 17 -2 13 -5z m2094 -23 c-6 -10 -23 -26
-38 -36 -26 -16 -25 -15 6 19 39 40 46 44 32 17z m895 -428 c-4 -4 -143 -94
-309 -199 l-302 -192 -71 39 -71 39 -252 0 c-138 0 -251 -3 -251 -7 0 -5 9
-82 20 -173 11 -91 20 -207 20 -258 0 -85 2 -95 24 -117 13 -13 39 -27 59 -30
34 -7 35 -7 24 -42 -8 -25 -8 -43 1 -65 6 -17 9 -36 5 -41 -4 -6 0 -8 10 -4 9
3 19 1 23 -5 5 -7 41 -9 114 -5 104 6 109 8 139 37 17 18 31 36 31 41 0 5 10
25 23 44 l22 35 153 0 c85 0 162 -5 172 -10 11 -6 22 -26 25 -48 4 -20 12 -55
19 -77 14 -43 11 -65 -7 -65 -8 0 -11 -15 -9 -45 l4 -45 -484 0 c-452 0 -490
1 -564 20 -164 41 -281 122 -303 209 -15 57 -63 619 -58 665 12 94 20 111 66
159 53 56 114 90 203 114 56 15 141 17 776 19 393 2 716 5 720 8 3 3 12 6 20
6 9 0 12 -3 8 -7z m-5431 -17 c-25 -18 -15 -50 17 -54 28 -3 74 31 63 47 -2 5
2 12 11 15 9 3 276 6 595 6 l579 0 0 -52 c0 -29 -9 -89 -18 -133 l-18 -80
-361 -5 c-199 -3 -363 -7 -365 -10 -3 -3 -9 -31 -15 -63 -7 -40 -6 -62 1 -72
9 -12 67 -15 321 -17 l310 -3 -3 -50 c-2 -42 -25 -167 -38 -212 -3 -10 -75
-13 -316 -13 -172 0 -318 -4 -324 -8 -11 -7 -34 -90 -37 -131 -1 -15 8 -31 26
-45 27 -20 41 -21 310 -24 l283 -3 1 -42 c3 -72 7 -88 20 -83 7 3 15 1 19 -5
3 -6 28 -9 55 -8 67 4 80 -11 71 -76 l-7 -50 -475 -3 c-447 -2 -480 -1 -554
18 -128 32 -203 88 -225 167 -9 31 -2 81 36 291 l47 254 -233 226 -234 227
238 2 c194 2 234 0 220 -11z m2487 3 c78 -16 187 -72 232 -118 22 -22 38 -43
35 -45 -2 -2 -24 -7 -49 -11 -55 -8 -56 -9 -76 -48 -9 -18 -22 -36 -28 -40 -8
-6 -7 -10 2 -14 6 -2 12 -13 12 -24 0 -37 38 -94 83 -127 25 -17 50 -32 56
-32 6 0 11 -6 11 -12 0 -9 4 -8 10 2 8 11 9 9 5 -10 -36 -171 -44 -186 -121
-238 -102 -68 -239 -92 -536 -92 -160 0 -177 2 -181 18 -3 9 -5 3 -6 -15 -1
-26 -4 -30 -21 -26 -28 8 -25 -15 7 -49 l26 -28 -12 -110 c-6 -61 -16 -122
-21 -135 l-10 -25 -244 0 c-183 0 -246 3 -254 13 -10 12 67 1075 81 1107 3 8
7 24 9 34 2 11 9 21 16 24 11 3 13 -10 10 -62 -3 -70 3 -79 33 -45 12 14 26
20 39 16 17 -4 20 -1 18 16 -2 14 2 21 10 19 7 -1 15 5 18 13 3 8 11 12 17 8
6 -3 7 -1 3 6 -4 6 -2 18 4 26 11 13 72 15 391 15 235 0 398 -4 431 -11z m941
1 c5 -5 13 -92 34 -357 6 -80 5 -83 -15 -83 -23 0 -52 -35 -52 -62 0 -25 33
-41 52 -25 9 7 18 19 21 27 7 20 12 -113 9 -215 -2 -44 1 -101 7 -126 19 -83
32 -231 22 -243 -5 -6 -11 -29 -13 -51 l-3 -40 -247 -3 -248 -2 -5 22 c-11 51
-44 1083 -35 1092 6 6 10 22 10 37 0 18 6 29 18 32 22 7 439 4 445 -3z m-3718
-370 c3 -5 1 -10 -4 -10 -6 0 -11 5 -11 10 0 6 2 10 4 10 3 0 8 -4 11 -10z
m815 -846 c0 -15 -24 -90 -33 -101 -10 -14 -308 -19 -306 -5 4 21 -3 32 -17
32 -11 0 -15 -6 -11 -20 4 -17 0 -20 -29 -20 -42 0 -45 -5 -98 -150 l-41 -115
-112 -3 c-72 -2 -114 -7 -120 -15 -5 -7 -19 -35 -31 -64 -18 -41 -20 -57 -12
-79 10 -24 9 -26 -6 -13 -39 32 -36 51 37 252 72 195 88 222 147 259 68 42
105 47 375 47 141 1 257 -2 257 -5z m778 -24 c1 -14 16 -93 32 -176 17 -83 30
-157 30 -163 0 -7 -38 -11 -120 -11 l-119 0 24 26 c14 15 25 36 25 48 -1 30
-30 64 -64 72 l-28 7 7 -72 c6 -56 4 -71 -6 -72 -8 0 -5 -4 6 -9 11 -4 -66 -7
-181 -7 l-202 2 -20 -25 c-11 -14 -44 -64 -74 -112 -29 -48 -59 -90 -66 -93
-35 -14 -26 14 35 112 36 59 106 179 156 267 49 89 101 178 114 199 l24 37
212 -2 212 -3 3 -25z m701 8 c24 -65 24 -65 -26 -89 -26 -12 -63 -35 -81 -51
-18 -15 -39 -28 -46 -28 -21 0 -48 -83 -44 -137 l3 -48 -98 -3 c-116 -3 -111
2 -130 -142 -10 -71 -16 -95 -27 -95 -10 0 -14 9 -13 30 4 52 63 539 68 563 5
22 6 22 195 22 188 0 191 0 199 -22z m701 -2 c0 -12 3 -50 6 -84 6 -57 5 -60
-16 -64 l-22 -3 21 -27 c17 -21 21 -40 21 -102 l0 -76 -104 0 c-82 0 -105 -3
-109 -15 -3 -8 -7 -59 -8 -115 -1 -77 -5 -100 -15 -100 -11 0 -14 38 -14 204
0 259 -9 273 -79 114 l-37 -83 -66 -3 c-64 -3 -68 -4 -88 -37 -12 -19 -25 -35
-30 -35 -21 0 -18 24 11 97 17 43 51 132 74 198 24 66 46 128 50 138 6 15 26
17 206 17 l199 0 0 -24z m762 -16 c2 -22 0 -40 -4 -40 -5 0 -8 -7 -8 -15 0
-13 -28 -15 -190 -15 l-190 0 0 -46 c0 -85 -3 -84 193 -85 99 -1 159 -5 142
-9 l-30 -7 33 -14 c27 -11 32 -19 32 -46 l0 -33 -135 0 c-130 0 -135 1 -135
21 0 14 -5 19 -17 17 -10 -2 -17 -11 -17 -21 1 -11 -6 -17 -21 -17 -13 0 -25
-7 -29 -15 -4 -12 -26 -15 -111 -15 l-107 0 4 -72 c2 -40 7 -82 12 -93 5 -14
0 -11 -17 9 -28 33 -33 70 -43 354 l-7 182 320 0 321 0 4 -40z m743 5 c70 -35
96 -69 114 -150 12 -51 11 -60 -2 -70 -21 -15 -30 -75 -11 -75 8 0 14 -7 14
-15 0 -8 5 -15 10 -15 6 0 10 -4 10 -10 0 -6 -44 -10 -111 -10 -78 0 -108 -3
-103 -11 3 -6 17 -58 29 -115 17 -79 19 -104 10 -104 -8 0 -20 30 -30 78 -28
131 -35 151 -55 162 -24 13 -157 13 -165 0 -4 -6 -54 -10 -116 -10 -92 0 -111
-3 -116 -16 -6 -15 11 -155 23 -196 4 -12 0 -18 -10 -18 -9 0 -16 2 -16 4 0 9
-90 563 -95 584 l-6 23 283 -3 283 -3 60 -30z m856 -22 c15 -45 15 -52 2 -57
-8 -3 -90 -6 -181 -6 -92 0 -173 -4 -180 -8 -8 -6 -10 -19 -6 -41 8 -40 39
-57 119 -66 157 -17 278 -36 296 -45 23 -13 25 -22 3 -13 -14 5 -16 2 -10 -23
4 -16 8 -37 9 -47 1 -10 7 -15 14 -13 7 3 15 1 18 -4 4 -6 -31 -10 -89 -10
l-95 0 15 -35 c12 -30 19 -71 12 -77 -2 -1 -97 -4 -213 -7 -230 -7 -216 -2
-201 -68 5 -21 4 -33 -3 -33 -12 0 -43 98 -35 111 3 5 94 9 202 9 108 0 203 4
210 9 17 11 6 74 -16 94 -11 10 -80 23 -192 36 -213 27 -253 42 -288 113 -13
26 -26 73 -29 105 -5 52 -3 60 20 81 50 47 84 51 351 49 l249 -2 18 -52z
m-3155 -199 c73 -236 106 -355 101 -361 -11 -10 -46 83 -93 245 -50 172 -48
165 -32 160 6 -2 17 -22 24 -44z m-1431 -50 c-15 -84 -15 -84 -141 -84 l-113
0 -22 -60 -22 -60 -83 0 c-45 0 -86 5 -89 10 -4 6 21 10 68 10 l75 0 26 88
c45 146 25 132 177 132 l131 0 -7 -36z m1625 -59 c0 -8 -4 -15 -10 -15 -5 0
-10 7 -10 15 0 8 5 15 10 15 6 0 10 -7 10 -15z m-959 -156 c11 -38 10 -89 -1
-89 -13 0 -17 11 -24 73 -4 36 -3 48 6 45 7 -3 15 -15 19 -29z m2404 11 c8
-13 -375 -13 -395 0 -10 6 53 10 187 10 124 0 204 -4 208 -10z m-1013 -330
l64 -105 198 -3 197 -2 -126 -95 c-134 -101 -165 -121 -165 -107 0 10 76 82
150 144 l45 38 -95 -44 c-159 -72 -191 -90 -186 -101 2 -6 14 -47 26 -90 12
-44 33 -117 47 -163 14 -46 23 -86 20 -89 -3 -2 -18 14 -33 36 -14 23 -69 77
-121 121 l-95 80 -86 -77 c-88 -78 -162 -157 -162 -173 0 -5 20 12 44 38 33
35 48 44 56 36 8 -8 -2 -25 -38 -65 -42 -45 -52 -52 -65 -41 -13 11 -12 23 10
105 14 51 40 137 58 192 19 55 31 103 27 107 -9 9 -249 114 -282 123 -14 4 11
-18 54 -49 129 -93 146 -108 146 -123 0 -11 -8 -10 -37 8 -75 44 -149 94 -212
141 l-64 48 205 0 206 0 36 68 c73 132 100 173 107 160 4 -7 36 -60 71 -118z
m-679 3 c-7 -2 -19 -2 -25 0 -7 3 -2 5 12 5 14 0 19 -2 13 -5z m820 -606 c48
-48 76 -106 34 -71 -47 39 -107 99 -107 106 0 20 33 4 73 -35z"/>
<path d="M5781 7794 c0 -11 3 -14 6 -6 3 7 2 16 -1 19 -3 4 -6 -2 -5 -13z"/>
<path d="M5340 7627 c0 -2 14 -16 30 -32 17 -16 30 -24 30 -19 0 6 -13 20 -30
32 -16 13 -30 21 -30 19z"/>
<path d="M5004 7585 c-16 -14 -24 -25 -19 -25 14 0 72 49 59 50 -6 0 -24 -11
-40 -25z"/>
<path d="M7803 7358 c-6 -7 -13 -20 -17 -28 -5 -11 -4 -11 5 1 11 15 14 15 31
0 10 -8 18 -22 18 -31 -1 -12 -4 -11 -15 4 -10 13 -18 17 -25 10 -6 -6 0 -16
19 -27 29 -17 30 -17 55 8 28 27 32 40 17 50 -5 3 -12 -3 -14 -12 -3 -11 -5
-5 -6 12 -1 23 -3 27 -11 15 -6 -10 -10 -11 -10 -2 0 6 -8 12 -19 12 -10 0
-23 -6 -28 -12z"/>
<path d="M5065 7479 c-99 -8 -225 -34 -267 -55 -37 -19 -40 -37 -28 -161 14
-136 28 -154 119 -161 54 -4 66 -1 123 31 35 19 84 54 110 77 l47 41 63 -51
c120 -96 209 -122 288 -82 56 27 71 69 68 187 l-3 100 -45 22 c-84 42 -298 65
-475 52z m350 -58 c30 -11 30 -11 -8 -7 -39 5 -42 4 -164 -66 -46 -25 -52 -32
-43 -48 15 -27 29 -33 45 -20 8 7 15 10 15 6 0 -31 -35 -31 -59 0 l-21 27 -55
-42 c-30 -23 -62 -44 -70 -47 -16 -7 -115 136 -115 167 0 11 -9 19 -22 21 -13
2 6 9 42 15 80 14 413 10 455 -6z m-20 -39 c-20 -5 -20 -5 0 -12 17 -6 11 -12
-37 -45 -32 -20 -64 -35 -72 -32 -19 7 -14 59 5 65 8 3 17 11 21 18 5 7 27 12
55 11 27 0 39 -3 28 -5z"/>
<path d="M5325 7369 c-4 -6 -17 -15 -29 -20 -19 -9 -19 -9 4 -4 14 2 36 5 50
6 14 0 19 3 12 6 -6 2 -10 9 -6 14 3 5 -2 9 -10 9 -8 0 -18 -5 -21 -11z"/>
<path d="M5297 7323 c-12 -12 -7 -22 8 -17 8 4 15 10 15 15 0 11 -14 12 -23 2z"/>
<path d="M8140 6690 c-6 -11 -8 -20 -6 -20 3 0 10 9 16 20 6 11 8 20 6 20 -3
0 -10 -9 -16 -20z"/>
<path d="M7832 6493 c8 -10 45 -55 83 -101 37 -45 70 -80 73 -78 2 3 -30 44
-72 92 -42 48 -76 91 -76 95 0 5 -5 9 -12 9 -7 0 -6 -6 4 -17z"/>
<path d="M6590 6975 c-7 -8 -8 -15 -2 -15 5 0 15 7 22 15 7 8 8 15 2 15 -5 0
-15 -7 -22 -15z"/>
<path d="M5605 5960 c-3 -5 -1 -10 4 -10 6 0 11 5 11 10 0 6 -2 10 -4 10 -3 0
-8 -4 -11 -10z"/>
<path d="M5888 5963 c7 -3 16 -2 19 1 4 3 -2 6 -13 5 -11 0 -14 -3 -6 -6z"/>
<path d="M5938 4953 c7 -3 16 -2 19 1 4 3 -2 6 -13 5 -11 0 -14 -3 -6 -6z"/>
<path d="M6640 3989 c-11 -19 -10 -20 9 -9 12 6 21 15 21 20 0 18 -19 11 -30
-11z"/>
<path d="M7504 3986 c-8 -22 3 -33 18 -18 9 9 9 15 0 24 -9 9 -13 7 -18 -6z"/>
<path d="M7342 3952 l-54 -3 7 -37 c3 -20 8 -52 10 -69 2 -18 12 -44 22 -58
22 -31 136 -105 161 -105 10 0 48 19 83 41 35 23 81 53 102 66 l38 24 -26 33
c-14 18 -25 39 -25 46 0 9 -5 8 -13 -4 -13 -17 -16 -17 -38 -3 -13 8 -48 18
-78 22 -51 7 -120 30 -131 44 -3 3 -29 5 -58 3z m38 -177 c0 -8 -7 -15 -15
-15 -16 0 -20 12 -8 23 11 12 23 8 23 -8z"/>
<path d="M6564 3903 l-18 -28 24 16 c26 17 38 39 22 39 -5 0 -18 -12 -28 -27z"/>
<path d="M6396 3551 c-22 -24 -20 -58 4 -71 16 -9 22 -6 35 21 9 16 15 37 13
46 -4 22 -34 24 -52 4z"/>
<path d="M6563 3324 c-9 -24 8 -46 49 -60 33 -11 37 -11 41 7 3 10 1 22 -4 25
-5 3 -7 10 -4 15 4 5 -1 9 -9 9 -9 0 -16 5 -16 10 0 17 -50 11 -57 -6z"/>
<path d="M7392 3068 c6 -18 28 -21 28 -4 0 9 -7 16 -16 16 -9 0 -14 -5 -12
-12z"/>
<path d="M2313 4003 c-13 -2 -23 -8 -23 -13 0 -5 41 -47 92 -94 l91 -86 25 38
c14 20 34 47 44 58 17 19 18 25 7 43 -7 11 -22 21 -34 23 -12 2 -19 10 -19 21
2 15 -8 17 -80 16 -44 -1 -91 -4 -103 -6z"/>
<path d="M3015 4001 l30 -6 -37 -23 c-21 -13 -38 -25 -38 -28 0 -2 21 -14 46
-25 l45 -22 27 20 c34 26 37 67 5 71 -13 2 -23 8 -23 13 0 5 -19 8 -42 8 -39
-1 -40 -2 -13 -8z"/>
<path d="M3342 3989 c-12 -19 -11 -19 8 -9 11 6 20 15 20 20 0 17 -15 11 -28
-11z"/>
<path d="M3270 3910 c-6 -11 -7 -20 -2 -20 10 0 32 21 32 32 0 16 -19 8 -30
-12z"/>
<path d="M2557 3834 c-8 -8 1 -24 14 -24 5 0 9 7 9 15 0 15 -12 20 -23 9z"/>
<path d="M2677 3648 c-27 -29 -17 -30 23 -2 26 18 30 24 15 23 -11 0 -28 -10
-38 -21z"/>
<path d="M2786 3558 c-21 -29 -20 -55 2 -66 23 -13 42 -4 52 23 21 55 -22 89
-54 43z"/>
<path d="M3091 3546 c-24 -25 -19 -62 10 -69 14 -4 24 3 35 25 29 55 -4 88
-45 44z"/>
<path d="M2920 3112 c-22 -18 -37 -82 -19 -82 5 0 9 -6 9 -13 0 -15 34 -36 65
-41 28 -5 75 25 81 51 18 72 -78 132 -136 85z"/>
<path d="M4647 3733 c-13 -12 -8 -210 6 -220 26 -20 96 -35 138 -30 94 12 141
25 162 46 14 14 17 21 8 21 -11 0 -13 16 -7 79 9 109 5 111 -170 111 -72 0
-134 -3 -137 -7z"/>
<path d="M4190 3310 c0 -5 5 -10 10 -10 6 0 10 5 10 10 0 6 -4 10 -10 10 -5 0
-10 -4 -10 -10z"/>
<path d="M4223 3258 c-29 -14 -30 -44 -2 -59 18 -9 25 -7 50 17 22 21 26 31
18 41 -13 15 -35 16 -66 1z"/>
<path d="M4520 3250 c0 -5 7 -7 15 -4 8 4 15 8 15 10 0 2 -7 4 -15 4 -8 0 -15
-4 -15 -10z"/>
<path d="M5682 3668 c3 -61 6 -73 21 -76 29 -6 56 26 55 64 -1 19 -4 34 -8 34
-4 0 -12 11 -18 25 -7 15 -20 25 -32 25 -19 0 -21 -5 -18 -72z"/>
<path d="M5752 3283 c-26 -10 -52 -90 -52 -162 0 -95 11 -121 47 -115 15 3 35
12 44 20 8 8 22 14 30 14 10 0 11 2 2 8 -7 4 -16 22 -19 40 -5 25 -3 32 9 32
8 0 21 10 29 23 17 25 29 87 16 87 -4 0 -8 7 -8 15 0 8 -6 15 -14 15 -8 0 -16
4 -18 8 -4 11 -49 21 -66 15z"/>
<path d="M6048 3013 c7 -3 16 -2 19 1 4 3 -2 6 -13 5 -11 0 -14 -3 -6 -6z"/>
<path d="M2515 2490 c-8 -14 3 -30 21 -30 8 0 14 9 14 20 0 21 -24 28 -35 10z"/>
<path d="M3702 2668 c-20 -25 -102 -186 -102 -202 0 -13 12 -16 69 -16 39 0
72 3 74 8 5 7 -20 212 -26 219 -2 2 -9 -2 -15 -9z"/>
<path d="M5000 2705 c-17 -20 -8 -50 16 -53 30 -4 78 40 62 56 -17 17 -63 15
-78 -3z"/>
<path d="M5530 2600 l0 -61 78 7 c42 4 79 9 82 11 12 11 -123 103 -151 103 -5
0 -9 -27 -9 -60z"/>
<path d="M6545 2738 c-19 -8 -45 -50 -45 -72 0 -5 -7 -18 -17 -28 -13 -15 -14
-24 -6 -53 6 -20 7 -35 2 -35 -17 0 -9 -50 12 -71 16 -16 28 -20 52 -15 39 8
68 38 56 57 -20 32 -10 39 54 39 82 0 91 7 84 61 -6 47 -27 69 -64 69 -13 0
-34 11 -46 23 -12 13 -28 22 -36 19 -7 -2 -16 0 -20 5 -4 7 -14 7 -26 1z"/>
<path d="M6333 2533 c3 -10 8 -31 11 -46 7 -31 31 -34 49 -6 8 13 6 24 -6 43
-20 30 -61 37 -54 9z"/>
<path d="M7357 2783 c-24 -23 21 -73 66 -73 20 0 28 25 14 39 -6 6 -7 11 -2
11 5 0 0 7 -11 15 -20 15 -56 20 -67 8z"/>
<path d="M3035 2490 c17 -33 36 -38 55 -15 20 24 4 45 -35 45 l-36 0 16 -30z"/>
<path d="M4000 7919 c0 -5 5 -7 10 -4 6 3 10 8 10 11 0 2 -4 4 -10 4 -5 0 -10
-5 -10 -11z"/>
<path d="M3900 7830 c0 -6 7 -10 15 -10 8 0 15 2 15 4 0 2 -7 6 -15 10 -8 3
-15 1 -15 -4z"/>
<path d="M3998 7753 c7 -3 16 -2 19 1 4 3 -2 6 -13 5 -11 0 -14 -3 -6 -6z"/>
<path d="M3901 7728 c1 -16 3 -18 6 -7 3 11 12 15 26 13 21 -4 21 -4 2 5 -30
15 -35 13 -34 -11z"/>
<path d="M3960 7722 c0 -5 7 -13 16 -16 9 -4 14 -9 11 -13 -4 -3 -18 2 -33 11
-14 10 -28 15 -31 13 -2 -3 6 -11 18 -18 29 -15 44 -30 51 -49 3 -10 6 -8 10
8 4 12 2 20 -3 16 -12 -7 -11 3 1 27 7 11 7 19 1 19 -5 0 -16 3 -25 6 -9 3
-16 2 -16 -4z"/>
<path d="M4092 7640 c0 -14 2 -19 5 -12 2 6 2 18 0 25 -3 6 -5 1 -5 -13z"/>
<path d="M4571 7634 c0 -11 3 -14 6 -6 3 7 2 16 -1 19 -3 4 -6 -2 -5 -13z"/>
<path d="M4060 7599 c0 -5 9 -9 20 -9 11 0 20 4 20 8 0 4 -9 8 -20 9 -11 1
-20 -2 -20 -8z"/>
<path d="M4330 6933 c0 -48 3 -98 6 -110 7 -26 24 -31 24 -8 0 8 5 14 11 13 6
-2 12 7 14 20 1 14 -4 22 -14 22 -11 0 -10 3 4 14 11 8 22 13 25 11 3 -2 6 24
5 58 l0 62 -37 3 -38 3 0 -88z"/>
<path d="M5985 6840 c-3 -6 2 -13 12 -16 49 -15 84 -36 80 -47 -5 -15 72 -62
96 -59 21 4 23 -21 2 -42 -22 -21 -18 -29 10 -24 14 3 25 2 25 -3 0 -4 14 -3
30 3 21 7 34 7 43 0 8 -7 18 -7 27 -2 8 5 43 6 77 3 43 -4 63 -2 63 5 0 12
-89 56 -135 68 -14 3 -25 10 -25 15 0 5 11 7 24 3 13 -3 27 -1 30 5 4 7 0 10
-11 9 -34 -3 -54 2 -48 12 3 5 -7 13 -22 16 -15 4 -37 13 -48 19 -11 7 -36 15
-55 19 l-35 6 44 -25 c23 -14 50 -25 60 -26 10 0 11 -2 4 -6 -7 -2 -60 14
-118 36 -115 45 -121 46 -130 31z"/>
<path d="M3878 6523 c7 -3 16 -2 19 1 4 3 -2 6 -13 5 -11 0 -14 -3 -6 -6z"/>
<path d="M6710 6470 c-30 -10 -27 -11 23 -14 46 -3 48 -5 53 -58 11 -98 14
-109 40 -118 14 -6 23 -14 20 -19 -3 -5 19 -17 49 -27 57 -17 67 -36 24 -42
-13 -2 -21 -1 -17 3 9 9 -16 35 -35 35 -8 0 -22 9 -32 20 -9 10 -34 25 -54 31
-20 6 -78 31 -130 55 -52 24 -96 42 -99 39 -3 -3 -3 -6 -1 -8 2 -2 24 -16 49
-32 54 -34 164 -125 153 -125 -5 0 -14 5 -19 10 -7 7 -14 3 -22 -14 -9 -21 -8
-25 13 -30 19 -5 24 -14 27 -51 2 -25 -1 -46 -7 -48 -6 -2 -4 -10 4 -20 8 -11
11 -28 7 -48 -3 -16 -2 -28 2 -25 4 3 8 -11 8 -30 0 -19 2 -33 6 -31 3 1 15
-7 27 -17 13 -12 21 -14 21 -7 0 7 5 9 10 6 6 -3 10 -1 10 5 0 7 7 10 15 6 8
-3 19 3 25 14 6 11 18 17 29 15 12 -2 18 2 17 13 -1 12 6 16 20 14 12 -1 27 4
34 13 7 8 25 15 40 15 21 0 38 11 64 42 32 37 36 48 36 98 0 31 5 62 13 69 10
10 9 14 -5 22 -22 12 -24 44 -3 35 10 -4 15 1 15 14 0 23 -29 27 -48 8 -9 -9
-12 -9 -12 0 0 7 -5 12 -12 12 -6 0 -26 11 -45 26 -34 26 -42 51 -22 71 17 17
-22 33 -126 55 -130 27 -137 28 -165 18z m270 -327 c0 -24 -25 -9 -28 17 -3
21 -2 22 12 11 9 -7 16 -20 16 -28z m-12 -106 c3 -15 -2 -18 -25 -15 -17 2
-29 10 -31 21 -3 15 2 18 25 15 17 -2 29 -10 31 -21z"/>
<path d="M7172 6449 c2 -7 10 -15 17 -17 8 -3 12 1 9 9 -2 7 -10 15 -17 17 -8
3 -12 -1 -9 -9z"/>
<path d="M7200 6245 c0 -3 16 -22 36 -41 26 -27 32 -39 24 -49 -7 -9 -7 -21 1
-41 7 -16 11 -33 10 -39 -2 -5 9 1 23 14 23 22 26 22 32 7 4 -10 2 -22 -5 -29
-12 -12 -15 -47 -5 -47 13 0 52 49 45 56 -3 4 0 4 7 0 7 -4 10 -11 8 -15 -9
-15 10 -30 32 -24 17 4 22 12 20 34 -1 17 -6 25 -13 20 -9 -6 -19 -7 -42 -2
-5 1 5 12 21 25 28 24 28 24 8 35 -14 7 -19 17 -15 28 4 11 3 14 -5 9 -7 -4
-12 -2 -12 4 0 7 -7 9 -15 6 -8 -3 -21 -8 -28 -11 -7 -3 -33 10 -58 30 -40 31
-69 44 -69 30z m171 -112 c13 -16 12 -17 -3 -4 -10 7 -18 15 -18 17 0 8 8 3
21 -13z"/>
<path d="M6874 5909 c-2 -4 0 -19 6 -34 6 -15 8 -31 4 -36 -3 -5 -3 -9 1 -9 3
0 10 10 15 23 7 17 9 18 9 5 1 -10 6 -18 11 -18 6 0 10 8 11 18 0 9 2 27 3 40
2 19 -2 22 -26 20 -16 -1 -31 -6 -34 -9z"/>
<path d="M6780 5901 c0 -5 5 -13 10 -16 6 -3 10 -2 10 4 0 5 -4 13 -10 16 -5
3 -10 2 -10 -4z"/>
<path d="M2951 5104 c0 -11 3 -14 6 -6 3 7 2 16 -1 19 -3 4 -6 -2 -5 -13z"/>
<path d="M2310 3699 c0 -5 5 -7 10 -4 10 6 15 -9 10 -30 -1 -5 4 -5 11 2 10
10 9 15 -1 28 -14 17 -30 20 -30 4z"/>
</g>
</svg>
